<svg width="136" height="108" viewBox="0 0 136 108" fill="none" xmlns="http://www.w3.org/2000/svg">
<g clip-path="url(#clip0_110_613)">
<path fill-rule="evenodd" clip-rule="evenodd" d="M28.2476 0.0131836C20.4877 0.0131836 14.7456 6.78235 15.0028 14.1233C15.2495 21.176 14.9289 30.3103 12.6217 37.7593C10.3062 45.2292 6.39306 49.9629 0 50.5704V57.4301C6.39306 58.039 10.3062 62.7703 12.6214 70.2412C14.9289 77.6902 15.2493 86.8245 15.0025 93.8772C14.7454 101.217 20.4874 107.987 28.2487 107.987H107.763C115.523 107.987 121.264 101.218 121.007 93.8772C120.76 86.8245 121.08 77.6902 123.388 70.2412C125.703 62.7703 129.607 58.0371 136 57.4301V50.5704C129.607 49.9615 125.703 45.2303 123.388 37.7593C121.08 30.3114 120.76 21.176 121.007 14.1233C121.264 6.78341 115.523 0.0131836 107.763 0.0131836H28.2466H28.2476ZM92.2035 66.4784C92.2035 76.5866 84.6382 82.7169 72.0835 82.7169H50.7118C50.1004 82.7169 49.5141 82.4749 49.0819 82.0441C48.6496 81.6132 48.4067 81.0289 48.4067 80.4196V27.5812C48.4067 26.9719 48.6496 26.3876 49.0819 25.9567C49.5141 25.5259 50.1004 25.2839 50.7118 25.2839H71.9618C82.4303 25.2839 89.3007 30.9353 89.3007 39.6121C89.3007 45.7023 84.6789 51.1544 78.7907 52.1096V52.4272C86.8063 53.3035 92.2035 58.8364 92.2035 66.4784ZM69.7531 32.5663H57.5673V49.7209H67.8308C75.765 49.7209 80.1399 46.5367 80.1399 40.8453C80.1391 35.5115 76.3778 32.5663 69.7531 32.5663ZM57.5673 56.5274V75.4321H70.2015C78.4624 75.4321 82.8381 72.1285 82.8381 65.92C82.8381 59.7116 78.3397 56.5263 69.6702 56.5263H57.5673V56.5274Z" fill="#E40037"/>
</g>
<defs>
<clipPath id="clip0_110_613">
<rect width="136" height="108" fill="white"/>
</clipPath>
</defs>
</svg>
