<svg width="72" height="108" viewBox="0 0 72 108" fill="none" xmlns="http://www.w3.org/2000/svg">
<path d="M18.0035 108C27.9375 108 35.9999 99.936 35.9999 90V72H18.0035C8.06947 72 0.00708008 80.064 0.00708008 90C0.00708008 99.936 8.06947 108 18.0035 108Z" fill="#E40037"/>
<path d="M0.00708008 54C0.00708008 44.064 8.06947 36 18.0035 36H35.9999V72H18.0035C8.06947 72 0.00708008 63.936 0.00708008 54Z" fill="#E40037"/>
<path d="M0.00689697 18C0.00689697 8.064 8.06928 0 18.0033 0H35.9997V36H18.0033C8.06928 36 0.00689697 27.936 0.00689697 18Z" fill="#E40037"/>
<path d="M36 0H53.9964C63.9304 0 71.9928 8.064 71.9928 18C71.9928 27.936 63.9304 36 53.9964 36H36V0Z" fill="#E40037"/>
<path d="M71.9928 54C71.9928 63.936 63.9304 72 53.9964 72C44.0624 72 36 63.936 36 54C36 44.064 44.0624 36 53.9964 36C63.9304 36 71.9928 44.064 71.9928 54Z" fill="#E40037"/>
</svg>
