<svg width="40" height="40" viewBox="0 0 40 40" fill="none" xmlns="http://www.w3.org/2000/svg">
<path d="M20 0C8.95667 0 0 9.18139 0 20.5056C0 29.5657 5.73 37.2519 13.6783 39.9637C14.6767 40.1534 15 39.5177 15 38.9777V35.1603C9.43667 36.4009 8.27833 32.7406 8.27833 32.7406C7.36833 30.3705 6.05667 29.74 6.05667 29.74C4.24167 28.4669 6.195 28.4942 6.195 28.4942C8.20333 28.6378 9.26 30.608 9.26 30.608C11.0433 33.742 13.9383 32.8363 15.08 32.3117C15.2583 30.9874 15.7767 30.0817 16.35 29.5708C11.9083 29.0496 7.23833 27.2913 7.23833 19.4359C7.23833 17.1957 8.02 15.3672 9.29833 13.9319C9.09167 13.4141 8.40667 11.3276 9.49333 8.5047C9.49333 8.5047 11.1733 7.95447 14.995 10.6065C16.59 10.152 18.3 9.92471 20 9.91617C21.7 9.92471 23.4117 10.152 25.01 10.6065C28.8283 7.95447 30.505 8.5047 30.505 8.5047C31.5933 11.3293 30.9083 13.4158 30.7017 13.9319C31.985 15.3672 32.76 17.1974 32.76 19.4359C32.76 27.3118 28.0817 29.0462 23.6283 29.5537C24.345 30.1894 25 31.4368 25 33.3507V38.9777C25 39.5228 25.32 40.1636 26.335 39.962C34.2767 37.2467 40 29.5623 40 20.5056C40 9.18139 31.045 0 20 0Z" fill="#E40037"/>
</svg>
