<svg width="99" height="108" viewBox="0 0 99 108" fill="none" xmlns="http://www.w3.org/2000/svg">
<path d="M92.0879 53.4469C92.0879 47.9792 87.6283 43.5463 82.1277 43.5463C81.7735 43.5463 81.4247 43.5652 81.0805 43.6013L94.7609 3.4939H36.6238L50.2853 43.5663C50.0837 43.5537 49.8818 43.5471 49.6798 43.5467C44.1791 43.5467 39.7195 47.9788 39.7195 53.4473C39.7195 57.867 42.6337 61.609 46.6553 62.8821C44.5313 66.5393 41.8583 69.8336 38.8236 72.6798C34.697 76.5492 29.9743 79.4836 24.8664 81.2915C18.7849 78.186 15.9132 71.2797 18.5043 65.2244C18.797 64.5404 19.0958 63.8473 19.3813 63.1572C23.787 62.1351 27.0704 58.2092 27.0704 53.5182C27.0704 48.05 22.6108 43.6176 17.1098 43.6176C11.6087 43.6176 7.14955 48.05 7.14955 53.5182C7.14955 56.8713 8.82766 59.8331 11.3934 61.6241C8.92813 67.2034 5.30423 73.0427 4.17513 79.8104C2.82195 87.9208 4.17058 96.5302 11.2277 101.392C27.663 112.715 45.5034 94.373 64.3138 89.7618C71.1308 88.0911 78.6141 88.3602 84.6202 84.9027C89.1305 82.3061 92.1042 78.0025 92.9478 73.1713C93.7819 68.3985 92.5664 63.6464 89.7713 59.7932C91.2708 58.0147 92.0912 55.7674 92.0879 53.4469Z" fill="#E40037"/>
<path d="M90.5512 72.7575C89.8187 76.9522 87.2124 80.6158 83.4012 82.8104C79.8482 84.8557 75.5908 85.4663 71.0827 86.1122C68.6679 86.4582 66.1708 86.8166 63.7314 87.4144C57.2813 88.9954 51.0337 92.0801 44.9924 95.0631C32.9013 101.033 22.4596 106.188 12.6138 99.4048C5.40168 94.4364 5.73457 85.2435 6.57476 80.2062C7.35353 75.5389 9.45895 71.2406 11.4946 67.084C11.8414 66.3776 12.1854 65.6698 12.5266 64.9607C13.5528 65.3684 14.6295 65.6369 15.7278 65.7589C13.6554 72.5574 16.9145 79.9495 23.7547 83.4424L24.6912 83.9207L25.6823 83.5698C31.0901 81.6553 36.0733 78.5837 40.493 74.4384C43.3499 71.7592 45.8064 68.795 47.8254 65.6277C48.4392 65.7198 49.059 65.766 49.6798 65.7661C55.9581 65.7661 61.157 61.1007 61.9615 55.0751C64.5314 54.9817 67.2609 54.9809 69.8455 55.0744C70.6493 61.1007 75.849 65.7664 82.1273 65.7664C84.7525 65.7664 87.1874 64.9486 89.1935 63.5594C90.5861 66.3932 91.1059 69.5816 90.5512 72.7575ZM17.1102 46.0357C21.2611 46.0357 24.6378 49.3925 24.6378 53.5186C24.6378 55.0005 24.2002 56.3825 23.4491 57.5463C22.198 59.4861 20.0709 60.8157 17.6273 60.9816C17.4563 60.9929 17.2838 61.0012 17.1102 61.0012C16.185 61.0012 15.299 60.8335 14.4796 60.5289C12.8295 59.9122 11.4477 58.7423 10.5725 57.2211C9.92264 56.0941 9.58119 54.8176 9.58217 53.5186C9.58217 49.3925 12.9592 46.0357 17.1102 46.0357ZM42.1525 53.4474C42.1525 49.6986 44.9404 46.5859 48.5628 46.0478C48.9275 45.9931 49.3006 45.9648 49.6801 45.9648C52.0934 45.9648 54.2421 47.1011 55.6199 48.8619C55.965 49.3009 56.2598 49.7769 56.4988 50.2809C56.9667 51.2716 57.2088 52.3529 57.2078 53.4474C57.2078 54.0455 57.135 54.627 57.0011 55.1848C56.2675 58.2375 53.6487 60.5712 50.4396 60.8923C50.1901 60.9171 49.9368 60.9299 49.6801 60.9299C48.2322 60.9311 46.815 60.5147 45.6005 59.7311C43.5281 58.3966 42.1525 56.0791 42.1525 53.4474ZM73.5707 44.5493C71.9325 46.1035 70.7536 48.0738 70.1618 50.2466C67.3244 50.1426 64.4842 50.1426 61.6468 50.2466C61.0099 47.8979 59.6897 45.8258 57.9134 44.2519L65.703 28.5956L73.5707 44.5493ZM40.0168 5.91279H91.3675L79.2389 41.4694C78.7171 41.5937 78.2041 41.7517 77.703 41.9424L65.7219 17.6477L53.7067 41.7973C53.1829 41.6186 52.6476 41.4752 52.1044 41.368L40.0168 5.91279ZM89.6549 53.4478C89.6549 54.1978 89.5423 54.9221 89.3349 55.6062C88.8429 57.2166 87.821 58.6161 86.4333 59.5803C85.172 60.4602 83.6682 60.9317 82.1273 60.9303C78.6516 60.9303 75.7197 58.576 74.8575 55.3876C74.6863 54.755 74.5996 54.1028 74.5997 53.4478C74.5997 52.4249 74.8074 51.4496 75.1828 50.5609C75.3765 50.1062 75.615 49.6716 75.8948 49.2637C77.2495 47.276 79.5354 45.9652 82.1273 45.9652C82.365 45.9652 82.5993 45.9773 82.8317 45.9991C86.6536 46.353 89.6553 49.5576 89.6553 53.4478H89.6549ZM94.5205 53.4478C94.5205 47.4335 90.1611 42.4154 84.4192 41.3436L98.1543 1.07593H33.2308L46.9871 41.425C41.4447 42.6509 37.2873 47.5741 37.2873 53.4474C37.2873 57.8576 39.632 61.7312 43.1459 63.908C41.4557 66.4113 39.4515 68.7668 37.1546 70.921C33.5117 74.3367 29.4537 76.9273 25.0787 78.6319C20.6719 75.8804 18.8091 70.6911 20.7435 66.1708L20.8952 65.8166L21.1796 65.1517C26.0198 63.4735 29.503 58.8944 29.503 53.5186C29.503 46.7258 23.9436 41.1996 17.1102 41.1996C10.2768 41.1996 4.71656 46.7258 4.71656 53.5186C4.71656 56.9471 6.13457 60.0518 8.41629 62.2875C7.99073 63.1837 7.55874 64.0769 7.12036 64.9671C5.0339 69.2262 2.66953 74.0536 1.77512 79.4147C-0.000807762 90.0615 2.86404 98.5726 9.84227 103.38C14.0766 106.297 18.3769 107.444 22.7041 107.444C30.852 107.444 39.0947 103.375 47.1565 99.3942C52.9624 96.528 58.9663 93.5639 64.8965 92.1099C67.1032 91.5691 69.3735 91.2434 71.7773 90.899C76.5443 90.2153 81.4733 89.5087 85.8395 86.9953C90.9008 84.0812 94.3651 79.1931 95.3448 73.5852C96.1857 68.7705 95.1738 63.9484 92.7055 59.8585C93.8949 57.9292 94.5231 55.7101 94.5205 53.4474V53.4478Z" fill="black"/>
</svg>
