<svg width="95" height="108" viewBox="0 0 95 108" fill="none" xmlns="http://www.w3.org/2000/svg">
<path d="M92.1036 83.0431L50.3964 107.14C49.517 107.652 48.5176 107.922 47.5 107.922C46.4824 107.922 45.483 107.652 44.6036 107.14L2.89639 83.0431C1.10066 82.0004 0 80.0893 0 78.0617V29.8679C0 27.7828 1.10066 25.9292 2.89639 24.8865L44.6036 0.789599C45.483 0.277571 46.4824 0.0078125 47.5 0.0078125C48.5176 0.0078125 49.517 0.277571 50.3964 0.789599L92.1036 24.8865C93.8997 25.9292 95 27.8407 95 29.8679V78.0617C94.9421 80.0889 93.8414 82.0004 92.1036 83.0431Z" fill="#E40037"/>
<path d="M47.4421 7.33545C46.5734 7.33545 45.7043 7.567 44.9513 8.03048L8.92071 28.8255C7.35655 29.6946 6.42993 31.3741 6.42993 33.1115V74.7019C6.42993 76.4976 7.35655 78.1196 8.92071 78.9887L44.9513 99.7837C45.7043 100.247 46.573 100.479 47.4421 100.479C48.3105 100.479 49.1799 100.247 49.9329 99.7837L85.9635 78.9883C87.5276 78.1196 88.4543 76.4397 88.4543 74.7023V33.1115C88.4543 31.3162 87.5276 29.6946 85.9635 28.8255L49.9329 8.03011C49.1796 7.567 48.3108 7.33545 47.4421 7.33545ZM47.4421 9.07322C48.021 9.07322 48.5428 9.24689 49.0638 9.5367L85.0944 30.3317C86.0793 30.9106 86.7161 32.0116 86.7161 33.1701V74.7602C86.7161 75.9187 86.0793 77.019 85.0944 77.5982L49.0641 98.3932C48.5428 98.6827 48.0214 98.8567 47.4421 98.8567C46.869 98.8543 46.3077 98.6938 45.82 98.3929L9.78944 77.5986C8.80456 77.0193 8.16739 75.9191 8.16739 74.7606V33.1701C8.16739 32.0116 8.80456 30.911 9.78907 30.3314L45.8197 9.5367C46.3411 9.24689 46.9203 9.07285 47.4414 9.07285L47.4421 9.07322ZM44.1112 45.3342H48.9769C49.151 45.3342 49.2668 45.2759 49.3825 45.1601C52.2789 41.9165 52.5688 35.1391 52.5688 33.1119C52.5688 32.8224 52.3368 32.5326 51.9895 32.5326H41.099C40.8095 32.5326 40.5197 32.7642 40.5197 33.1119C40.5197 35.0812 40.8095 41.8586 43.7059 45.1601C43.8217 45.2759 43.9375 45.3342 44.1112 45.3342ZM42.7789 34.3283H50.4253C50.7148 34.3283 51.0046 34.5598 51.0046 34.9075C51.0046 36.5295 50.7148 41.1053 48.7454 43.4803C48.5717 43.5964 48.4559 43.6543 48.2819 43.6543H44.8645C44.6904 43.6543 44.5747 43.5964 44.4589 43.4803C42.4891 41.1636 42.2575 36.5295 42.1997 34.9075C42.1997 34.6181 42.4312 34.3283 42.7789 34.3283ZM47.6447 31.3745C47.6447 31.3745 49.7303 30.1577 48.4556 27.9568C47.7026 26.7979 47.3553 25.8134 47.6447 25.4079C46.8918 26.3348 45.6174 27.3193 47.0075 29.4048C47.4714 29.9261 47.7026 31.0264 47.6447 31.3741V31.3745ZM45.3276 31.5478C45.3276 31.5478 46.7177 30.7369 45.849 29.2307C45.3276 28.4778 45.096 27.7828 45.3276 27.5508C44.8062 28.188 43.9954 28.8251 44.922 30.2735C45.2118 30.5629 45.3276 31.3162 45.3276 31.5478ZM45.1539 42.9593H48.0503C48.1661 42.9593 48.2819 42.9014 48.3977 42.7856C49.3825 41.6271 49.846 39.8314 50.0776 38.2673C50.0776 38.2673 50.0197 38.7887 48.6296 39.31C46.7185 40.0051 43.3582 39.5416 43.3582 39.5416C43.6477 40.758 44.1115 41.9165 44.8062 42.7856C44.8641 42.9014 45.0382 42.9593 45.1539 42.9593ZM23.3733 59.236V47.6512H21.2303L17.6967 53.0961L14.1632 47.6512H12.0197V59.2939H14.047V51.0106L17.6384 56.3976H17.6963L21.346 50.9527V59.236H23.3733ZM36.3494 47.8828C35.596 47.5933 34.7852 47.4193 33.9165 47.4193C33.0474 47.4193 32.2365 47.5351 31.4832 47.8831C30.7299 48.1726 30.0931 48.6357 29.5717 49.1571C29.0242 49.7032 28.591 50.353 28.2974 51.0685C28.0079 51.8218 27.8335 52.5743 27.8335 53.3855V53.4434C27.8335 54.2542 28.0079 55.0654 28.2974 55.7605C28.5868 56.5137 28.9924 57.1505 29.5138 57.6719C30.0352 58.1933 30.6724 58.6567 31.4249 58.9462C32.1783 59.236 32.9895 59.41 33.8582 59.41C34.7273 59.41 35.5381 59.2939 36.2915 58.9462C37.0444 58.6567 37.6816 58.1933 38.2026 57.6719C38.7502 57.1259 39.1836 56.4762 39.4773 55.7608C39.7668 55.0075 39.9408 54.2542 39.9408 53.4434V53.3855C39.9408 52.5743 39.7664 51.7639 39.4769 51.0685C39.1875 50.3156 38.7823 49.6784 38.2609 49.1574C37.7395 48.6357 37.1023 48.1722 36.3494 47.8828ZM37.7395 53.5013C37.7395 54.0227 37.6237 54.544 37.4497 55.0654C37.2181 55.5285 36.9865 55.992 36.6388 56.3397C36.283 56.6932 35.8722 56.9866 35.4224 57.2084C34.9585 57.4403 34.4375 57.5561 33.8582 57.5561C33.3372 57.5561 32.7579 57.4403 32.2944 57.2084C31.8446 56.9867 31.4338 56.6934 31.078 56.3401C30.7303 55.9341 30.4408 55.5285 30.2668 55.0079C30.0931 54.4862 29.9773 53.9652 29.9773 53.3855V53.3276C29.9773 52.8063 30.0931 52.2849 30.2668 51.7635C30.4987 51.3001 30.7303 50.8369 31.078 50.4892C31.4338 50.1356 31.8446 49.8421 32.2944 49.6202C32.7579 49.3886 33.2789 49.2728 33.8582 49.2728C34.4371 49.2728 34.9589 49.3886 35.4224 49.6202C35.8722 49.8421 36.283 50.1356 36.6388 50.4892C36.9865 50.8948 37.276 51.3 37.4497 51.8214C37.6237 52.3428 37.7391 52.8642 37.7391 53.4434V53.5013H37.7395ZM46.3125 51.7635C46.5441 51.3001 46.776 50.8366 47.1233 50.4892C47.4793 50.1358 47.8901 49.8423 48.3398 49.6202C48.8033 49.3886 49.2668 49.2728 49.846 49.2728C50.5411 49.2728 51.1204 49.3886 51.6418 49.6781C52.1632 49.9679 52.6266 50.3156 53.0898 50.7208L54.4224 49.2149C54.1325 48.9255 53.8431 48.6936 53.5533 48.4616C53.2638 48.2301 52.9161 48.0564 52.5688 47.8828C52.1632 47.7666 51.8154 47.6508 51.3519 47.5351C50.8888 47.4772 50.4253 47.4193 49.9039 47.4193C48.9769 47.4193 48.224 47.593 47.471 47.8824C46.7181 48.1722 46.0809 48.6357 45.5595 49.1571C45.0482 49.7203 44.6368 50.3668 44.3431 51.0685C44.0395 51.8034 43.8821 52.5904 43.8796 53.3855V53.4434C43.8796 54.2542 44.0533 55.0072 44.3431 55.7605C44.6325 56.5137 45.0382 57.1505 45.5595 57.6719C46.0809 58.1933 46.7181 58.6567 47.4132 58.9462C48.1463 59.2555 48.9345 59.4133 49.7303 59.41C50.2516 59.41 50.7727 59.41 51.2941 59.2939C51.6997 59.236 52.1632 59.062 52.5105 58.8883C52.8582 58.7146 53.2059 58.5406 53.5533 58.2511C53.901 57.9617 54.1904 57.7298 54.4803 57.3821L53.148 56.0499C52.6266 56.5137 52.1053 56.8611 51.6418 57.1505C51.1783 57.4403 50.5411 57.5561 49.846 57.5561C49.3247 57.5561 48.8033 57.3821 48.3398 57.2084C47.8766 57.0347 47.471 56.687 47.1233 56.3401C46.776 55.9341 46.4862 55.5285 46.3125 55.0072C46.1388 54.4862 46.0227 53.9648 46.0227 53.3855V53.3276C46.0227 52.8063 46.1388 52.2849 46.3125 51.7635ZM58.5352 47.6512V59.236H60.5625V54.3704H66.1237V59.236H68.151V47.6508H66.1237V52.4589H60.5625V47.6508H58.5352V47.6512ZM80.7789 56.4559L81.9375 59.2364H84.0806L78.9832 47.5933H77.1292L72.0319 59.236H74.1174L75.3335 56.4555H80.7789V56.4559ZM78.0562 50.0261L80.0256 54.6602H76.0868L78.0562 50.0261ZM10.5717 63.522H84.4283V62.8848H10.5717V63.522ZM53.0323 41.105C53.0323 41.3365 52.974 41.5106 52.974 41.7425H84.4283V41.105H53.0319H53.0323ZM40.1145 41.105H10.5717V41.7425H40.1724C40.1724 41.5109 40.1141 41.3369 40.1141 41.105H40.1145Z" fill="black"/>
</svg>
