<svg width="113" height="108" viewBox="0 0 113 108" fill="none" xmlns="http://www.w3.org/2000/svg">
<g clip-path="url(#clip0_110_611)">
<path d="M78.2971 75.126C82.467 74.6931 85.6306 71.0887 85.4867 66.7628C85.3432 62.4374 81.748 58.9768 77.4341 58.9768H77.1468C72.6886 59.1211 69.2376 62.8698 69.3815 67.3395C69.5254 69.5024 70.388 71.3768 71.6822 72.6745C66.7931 82.3353 59.3157 89.4003 48.0996 95.312C40.4783 99.3493 32.5696 100.791 24.6609 99.7821C18.1899 98.9169 13.157 96.0334 9.99299 91.2747C5.39177 84.2096 4.96052 76.5675 8.84313 68.9258C11.5754 63.4465 15.8889 59.4092 18.6212 57.3906C18.046 55.5162 17.1831 52.3442 16.7518 50.0374C-4.0989 65.177 -1.94175 85.6516 4.38537 95.312C9.13048 102.522 18.7651 106.991 29.406 106.991C32.2818 106.991 35.1576 106.703 38.0338 105.982C56.44 102.377 70.3884 91.419 78.2971 75.126ZM103.606 57.2467C92.6768 44.4139 76.5716 37.3489 58.1654 37.3489H55.8648C54.5706 34.7535 51.8383 33.023 48.8186 33.023H48.5308C44.0735 33.1673 40.6226 36.916 40.7661 41.3861C40.91 45.7116 44.5048 49.1722 48.8186 49.1722H49.106C52.2696 49.0279 55.0019 47.0092 56.1522 44.2696H58.7406C69.6693 44.2696 80.0225 47.4416 89.3697 53.6419C96.5594 58.4001 101.736 64.6003 104.612 72.0978C107.056 78.1537 106.913 84.0654 104.324 89.1122C100.298 96.7539 93.5397 100.935 84.6242 100.935C78.8722 100.935 73.4081 99.205 70.5319 97.9073C68.9503 99.3493 66.0741 101.656 64.0608 103.098C70.2445 105.982 76.5716 107.568 82.6109 107.568C96.4155 107.568 106.625 99.9259 110.508 92.2842C114.678 83.9211 114.39 69.5024 103.606 57.2467ZM30.5563 77.5766C30.7002 81.9024 34.2951 85.3626 38.6089 85.3626H38.8967C43.3545 85.2187 46.8054 81.4696 46.6615 76.9999C46.518 72.674 42.9228 69.2139 38.6089 69.2139H38.3216C38.0338 69.2139 37.6021 69.2139 37.3152 69.3577C31.4193 59.5531 28.9748 48.8836 29.8377 37.3484C30.4124 28.6971 33.2886 21.1993 38.3216 14.999C42.4915 9.66408 50.5441 7.06874 56.0087 6.9249C71.2509 6.63633 77.7215 25.6689 78.1532 33.3111C80.0225 33.7435 83.1861 34.7531 85.3432 35.474C83.6173 12.116 69.2376 0.00415039 55.4336 0.00415039C42.4915 0.00415039 30.5563 9.3764 25.8108 23.2183C19.1963 41.6743 23.5102 59.4092 31.5627 73.3954C30.8441 74.4045 30.4124 75.9903 30.5563 77.5766Z" fill="#E40037"/>
</g>
<defs>
<clipPath id="clip0_110_611">
<rect width="113" height="108" fill="white"/>
</clipPath>
</defs>
</svg>
