<svg width="94" height="108" viewBox="0 0 94 108" fill="none" xmlns="http://www.w3.org/2000/svg">
<path d="M4.06513 78.6995L46.9989 103.329L89.9349 78.6995V29.441L46.9989 4.81191L4.06513 29.441V78.6995ZM46.9989 107.992L0 81.0305V27.1097L46.9989 0.147461L94 27.1097V81.0305L46.9989 107.992Z" fill="#FF2B51"/>
<path d="M3.51729 29.1261L47 4.18213L90.4827 29.1261V79.0143L47 103.958L3.51729 79.0143V29.1261Z" fill="#E40037"/>
<path d="M66.95 36.1334C66.95 38.0933 66.5608 40.04 65.7824 41.9737C65.0044 43.9066 63.9489 45.7175 62.6488 47.3499C61.3447 48.9941 59.8188 50.4519 58.114 51.682C56.4007 52.9199 54.6232 53.809 52.7806 54.3508L51.9633 52.9972C53.0601 52.4509 54.0701 51.7472 54.9606 50.9086C55.868 50.0586 56.6537 49.0891 57.2959 48.0271C57.9425 46.9621 58.4464 45.8178 58.7948 44.6231C59.1434 43.4357 59.3204 42.2051 59.3202 40.9682C59.3202 39.5501 59.1128 38.2093 58.6975 36.9459C58.2826 35.6821 57.6727 34.5799 56.8682 33.6386C56.0637 32.6973 55.0708 31.9563 53.8903 31.4149C52.7094 30.8731 51.353 30.6024 49.8222 30.6024C47.9536 30.6024 46.241 30.9636 44.6838 31.6856C43.1269 32.4076 41.7253 33.381 40.4795 34.6058C39.234 35.8305 38.1504 37.2359 37.2291 38.8215C36.3072 40.409 35.5383 42.0797 34.9327 43.811C34.3283 45.5306 33.8661 47.2963 33.5506 49.0906C33.2393 50.8699 33.0836 52.5456 33.0836 54.1188C33.0836 55.7175 33.2525 57.3676 33.5896 59.0696C33.9313 60.786 34.4264 62.4688 35.069 64.0978C35.7112 65.7352 36.5199 67.3033 37.4825 68.7776C38.4427 70.2475 39.552 71.5368 40.8107 72.6456C42.0593 73.748 43.479 74.6427 45.015 75.295C46.559 75.9525 48.2389 76.2812 50.0557 76.2812C51.3016 76.2812 52.5148 76.1133 53.6953 75.7784C54.8743 75.444 56.0157 74.9905 57.1017 74.4249C58.1959 73.8548 59.2322 73.1812 60.1963 72.4135C61.1625 71.6465 62.067 70.806 62.9018 69.8994L64.1862 71.137C63.0443 72.6328 61.6886 74.0703 60.1185 75.4493C58.5458 76.8309 56.8448 78.0613 55.0385 79.124C53.2405 80.1858 51.3274 81.0421 49.3357 81.6768C47.3503 82.3087 45.3847 82.6242 43.4383 82.6242C41.5436 82.6242 39.7594 82.2959 38.0858 81.6381C36.4209 80.9858 34.8655 80.0859 33.4728 78.9693C32.0716 77.8478 30.8191 76.5325 29.7165 75.0243C28.6162 73.5203 27.6768 71.9062 26.9137 70.2085C26.1521 68.5186 25.5651 66.7563 25.1619 64.9486C24.7598 63.1437 24.5586 61.3772 24.5586 59.6497C24.5586 57.1484 24.9801 54.5763 25.8236 51.9334C26.667 49.2905 27.8284 46.725 29.3078 44.2364C30.7868 41.7482 32.5321 39.395 34.5432 37.1779C36.5546 34.9604 38.7217 33.026 41.0442 31.3762C43.3667 29.7257 45.7934 28.4174 48.3233 27.4506C50.8536 26.4834 53.3777 26 55.8947 26C57.4516 26 58.9053 26.2255 60.2547 26.6768C61.6041 27.1281 62.7718 27.7789 63.7581 28.6301C64.7443 29.4809 65.5228 30.5382 66.0937 31.8016C66.6647 33.0651 66.95 34.5087 66.95 36.1334Z" fill="black"/>
</svg>
