<svg width="286" height="84" viewBox="0 0 286 84" fill="none" xmlns="http://www.w3.org/2000/svg">
<mask id="path-1-outside-1_110_626" maskUnits="userSpaceOnUse" x="0" y="0" width="286" height="84" fill="black">
<rect fill="white" width="286" height="84"/>
<path d="M2.84822 64.9416V33.4317H42.3109V31.5886H2.84822V2.84256H44.8059V1H1V66.7841H45.1753V64.9416H2.84877H2.84822ZM80.7569 19.4267L64.3991 40.8943L48.4103 19.4273H46.0073L63.2897 42.2768L44.3433 66.7836H46.5615L64.398 43.6576L82.3272 66.7836H84.6375L65.5995 42.2757L82.9739 19.4262H80.7563L80.7569 19.4267ZM90.1832 83V53.5174H90.3679C91.4773 57.8169 93.6644 61.2719 96.9299 63.8826C100.195 66.4927 104.354 67.7983 109.406 67.7983C112.671 67.7983 115.567 67.1381 118.093 65.8175C120.619 64.497 122.729 62.7003 124.424 60.4275C126.118 58.1548 127.412 55.5137 128.306 52.5038C129.199 49.4944 129.646 46.3307 129.646 43.0145C129.646 39.4515 129.183 36.1651 128.259 33.1558C127.335 30.1458 125.995 27.5352 124.239 25.3243C122.483 23.1129 120.358 21.3926 117.862 20.1649C115.367 18.9362 112.548 18.3218 109.406 18.3218C107.003 18.3218 104.77 18.6752 102.706 19.3814C100.642 20.0881 98.8092 21.0857 97.2072 22.3758C95.5959 23.6758 94.1934 25.2138 93.0482 26.9363C91.8778 28.6871 90.9842 30.6065 90.3679 32.6951H90.1832V19.4267H88.335V83H90.1832ZM109.406 66.047C103.615 66.047 98.9628 64.0662 95.4511 60.1046C91.9394 56.143 90.1832 50.4455 90.1832 43.0134C90.1832 39.9421 90.6148 37.0245 91.4773 34.2606C92.3398 31.4968 93.5873 29.0703 95.2198 26.9822C96.8528 24.8936 98.8707 23.2351 101.273 22.007C103.676 20.7782 106.387 20.1638 109.406 20.1638C112.487 20.1638 115.182 20.7782 117.493 22.007C119.803 23.2351 121.713 24.909 123.223 27.0281C124.732 29.1472 125.872 31.5737 126.642 34.3065C127.412 37.04 127.797 39.9421 127.797 43.0134C127.797 45.7777 127.443 48.5267 126.734 51.2595C126.026 53.993 124.932 56.4499 123.453 58.6309C121.975 60.8108 120.081 62.5919 117.77 63.9744C115.459 65.3563 112.671 66.047 109.406 66.047ZM139.812 66.7841V39.973C139.812 37.3933 140.181 34.8745 140.921 32.4181C141.66 29.9611 142.8 27.7956 144.34 25.9227C145.88 24.0491 147.836 22.5749 150.209 21.4999C152.581 20.4249 155.399 19.9797 158.665 20.1638V18.3213C155.83 18.2605 153.351 18.5668 151.225 19.2426C149.099 19.9183 147.267 20.8396 145.726 22.007C144.186 23.1738 142.954 24.5402 142.03 26.1068C141.106 27.6709 140.421 29.3631 139.996 31.128H139.812V19.4267H137.963V66.7847H139.812V66.7841ZM160.975 43.474H200.715C200.838 40.2185 200.515 37.0864 199.745 34.0765C198.975 31.0666 197.742 28.3945 196.048 26.0609C194.354 23.7267 192.166 21.8532 189.486 20.4403C186.806 19.0274 183.618 18.3213 179.921 18.3213C177.271 18.3213 174.684 18.8743 172.158 19.9802C169.632 21.0857 167.413 22.6976 165.504 24.8167C163.594 26.9357 162.054 29.5309 160.883 32.6028C159.713 35.6735 159.127 39.1745 159.127 43.1057C159.127 46.6067 159.527 49.8776 160.328 52.9179C161.129 55.9583 162.361 58.5999 164.025 60.8417C165.689 63.0835 167.83 64.8188 170.448 66.047C173.066 67.2757 176.224 67.8592 179.921 67.7978C185.343 67.7978 189.902 66.2771 193.599 63.2373C197.296 60.1964 199.483 55.9124 200.161 50.3841H198.312C197.511 55.6055 195.462 59.5212 192.166 62.1313C188.87 64.742 184.727 66.047 179.736 66.047C176.347 66.047 173.482 65.4636 171.141 64.2968C168.8 63.13 166.89 61.5324 165.411 59.5057C163.933 57.4784 162.839 55.0984 162.131 52.365C161.422 49.6321 161.037 46.6681 160.975 43.474ZM198.866 41.6314H160.976C161.16 38.3146 161.776 35.3357 162.823 32.6946C163.871 30.0529 165.242 27.7956 166.936 25.9227C168.63 24.0491 170.602 22.6213 172.851 21.6381C175.1 20.6554 177.518 20.1638 180.106 20.1638C183.187 20.1638 185.897 20.7323 188.239 21.8687C190.579 23.0051 192.536 24.5562 194.107 26.5216C195.678 28.4869 196.864 30.7751 197.665 33.3853C198.466 35.9959 198.866 38.7448 198.866 41.6314ZM239.069 33.4317H240.917C240.917 28.149 239.376 24.3102 236.296 21.9146C233.215 19.5191 229.025 18.3213 223.727 18.3213C220.769 18.3213 218.274 18.6901 216.241 19.4273C214.208 20.1638 212.544 21.1161 211.25 22.2829C209.957 23.4497 209.033 24.7398 208.478 26.1527C207.923 27.5656 207.646 28.9171 207.646 30.2067C207.646 32.7864 208.108 34.844 209.033 36.3797C209.957 37.9153 211.405 39.1131 213.376 39.973C214.732 40.5868 216.271 41.1398 217.997 41.632C219.722 42.123 221.725 42.6451 224.004 43.1975C226.037 43.6897 228.04 44.1807 230.012 44.6718C231.983 45.1634 233.724 45.8236 235.233 46.6526C236.743 47.4821 237.975 48.5416 238.93 49.8317C239.884 51.1213 240.362 52.8107 240.362 54.8988C240.362 56.926 239.885 58.6458 238.93 60.0581C237.983 61.4637 236.736 62.6436 235.279 63.5138C233.801 64.4041 232.152 65.0489 230.335 65.4481C228.517 65.8474 226.746 66.047 225.021 66.047C219.414 66.047 215.117 64.8033 212.128 62.316C209.14 59.8281 207.647 55.9124 207.647 50.5683H205.798C205.798 56.5267 207.415 60.8876 210.65 63.652C213.885 66.4159 218.675 67.7978 225.021 67.7978C227.054 67.7978 229.102 67.5672 231.167 67.1065C233.23 66.6459 235.079 65.8938 236.712 64.8492C238.33 63.8194 239.69 62.4326 240.685 60.7958C241.702 59.1369 242.211 57.1102 242.211 54.7146C242.211 52.4418 241.764 50.5993 240.871 49.1864C239.977 47.774 238.807 46.6067 237.358 45.6854C235.911 44.7641 234.278 44.0425 232.461 43.5204C230.633 42.9953 228.799 42.4884 226.961 41.9997C224.699 41.4081 222.435 40.8246 220.169 40.2495C218.228 39.7579 216.426 39.1745 214.763 38.4987C213.161 37.823 211.882 36.8558 210.927 35.5967C209.972 34.3375 209.495 32.5408 209.495 30.2067C209.495 29.777 209.618 29.0089 209.864 27.9035C210.111 26.7975 210.696 25.6766 211.62 24.5402C212.544 23.4044 213.961 22.3907 215.872 21.4999C217.781 20.6095 220.4 20.1638 223.727 20.1638C226.007 20.1638 228.086 20.4099 229.965 20.901C231.844 21.3926 233.462 22.1756 234.817 23.2506C236.173 24.3256 237.22 25.6921 237.959 27.3505C238.699 29.0095 239.069 31.0362 239.069 33.4317ZM281.858 33.4317H283.706C283.706 28.149 282.166 24.3102 279.085 21.9146C276.005 19.5191 271.815 18.3213 266.516 18.3213C263.559 18.3213 261.064 18.6901 259.031 19.4273C256.997 20.1638 255.334 21.1161 254.04 22.2829C252.746 23.4497 251.822 24.7398 251.267 26.1527C250.713 27.5656 250.436 28.9171 250.436 30.2067C250.436 32.7864 250.898 34.844 251.822 36.3797C252.746 37.9153 254.194 39.1131 256.166 39.973C257.521 40.5868 259.061 41.1398 260.786 41.632C262.511 42.123 264.514 42.6451 266.793 43.1975C268.827 43.6897 270.829 44.1807 272.801 44.6718C274.773 45.1634 276.513 45.8236 278.023 46.6526C279.532 47.4821 280.764 48.5416 281.719 49.8317C282.674 51.1213 283.152 52.8107 283.152 54.8988C283.152 56.926 282.674 58.6458 281.719 60.0581C280.772 61.4636 279.526 62.6435 278.069 63.5138C276.59 64.4041 274.942 65.0489 273.124 65.4481C271.307 65.8474 269.535 66.047 267.81 66.047C262.203 66.047 257.906 64.8033 254.918 62.316C251.93 59.8281 250.436 55.9124 250.436 50.5683H248.588C248.588 56.5267 250.204 60.8876 253.439 63.652C256.674 66.4159 261.464 67.7978 267.81 67.7978C269.844 67.7978 271.892 67.5672 273.956 67.1065C276.02 66.6459 277.868 65.8938 279.501 64.8492C281.12 63.8194 282.48 62.4326 283.475 60.7958C284.492 59.1369 285 57.1102 285 54.7146C285 52.4418 284.553 50.5993 283.66 49.1864C282.767 47.774 281.596 46.6067 280.148 45.6854C278.7 44.7641 277.067 44.0425 275.25 43.5204C273.422 42.9953 271.589 42.4884 269.751 41.9997C267.489 41.4081 265.225 40.8246 262.958 40.2495C261.018 39.7579 259.215 39.1745 257.552 38.4987C255.95 37.823 254.671 36.8558 253.717 35.5967C252.762 34.3375 252.284 32.5408 252.284 30.2067C252.284 29.777 252.407 29.0089 252.654 27.9035C252.9 26.7975 253.486 25.6766 254.41 24.5402C255.334 23.4044 256.751 22.3907 258.661 21.4999C260.571 20.6095 263.189 20.1638 266.517 20.1638C268.796 20.1638 270.875 20.4099 272.755 20.901C274.634 21.3926 276.251 22.1756 277.607 23.2506C278.962 24.3256 280.009 25.6921 280.749 27.3505C281.488 29.0095 281.858 31.0362 281.858 33.4317H281.858Z"/>
</mask>
<path d="M2.84822 64.9416V33.4317H42.3109V31.5886H2.84822V2.84256H44.8059V1H1V66.7841H45.1753V64.9416H2.84877H2.84822ZM80.7569 19.4267L64.3991 40.8943L48.4103 19.4273H46.0073L63.2897 42.2768L44.3433 66.7836H46.5615L64.398 43.6576L82.3272 66.7836H84.6375L65.5995 42.2757L82.9739 19.4262H80.7563L80.7569 19.4267ZM90.1832 83V53.5174H90.3679C91.4773 57.8169 93.6644 61.2719 96.9299 63.8826C100.195 66.4927 104.354 67.7983 109.406 67.7983C112.671 67.7983 115.567 67.1381 118.093 65.8175C120.619 64.497 122.729 62.7003 124.424 60.4275C126.118 58.1548 127.412 55.5137 128.306 52.5038C129.199 49.4944 129.646 46.3307 129.646 43.0145C129.646 39.4515 129.183 36.1651 128.259 33.1558C127.335 30.1458 125.995 27.5352 124.239 25.3243C122.483 23.1129 120.358 21.3926 117.862 20.1649C115.367 18.9362 112.548 18.3218 109.406 18.3218C107.003 18.3218 104.77 18.6752 102.706 19.3814C100.642 20.0881 98.8092 21.0857 97.2072 22.3758C95.5959 23.6758 94.1934 25.2138 93.0482 26.9363C91.8778 28.6871 90.9842 30.6065 90.3679 32.6951H90.1832V19.4267H88.335V83H90.1832ZM109.406 66.047C103.615 66.047 98.9628 64.0662 95.4511 60.1046C91.9394 56.143 90.1832 50.4455 90.1832 43.0134C90.1832 39.9421 90.6148 37.0245 91.4773 34.2606C92.3398 31.4968 93.5873 29.0703 95.2198 26.9822C96.8528 24.8936 98.8707 23.2351 101.273 22.007C103.676 20.7782 106.387 20.1638 109.406 20.1638C112.487 20.1638 115.182 20.7782 117.493 22.007C119.803 23.2351 121.713 24.909 123.223 27.0281C124.732 29.1472 125.872 31.5737 126.642 34.3065C127.412 37.04 127.797 39.9421 127.797 43.0134C127.797 45.7777 127.443 48.5267 126.734 51.2595C126.026 53.993 124.932 56.4499 123.453 58.6309C121.975 60.8108 120.081 62.5919 117.77 63.9744C115.459 65.3563 112.671 66.047 109.406 66.047ZM139.812 66.7841V39.973C139.812 37.3933 140.181 34.8745 140.921 32.4181C141.66 29.9611 142.8 27.7956 144.34 25.9227C145.88 24.0491 147.836 22.5749 150.209 21.4999C152.581 20.4249 155.399 19.9797 158.665 20.1638V18.3213C155.83 18.2605 153.351 18.5668 151.225 19.2426C149.099 19.9183 147.267 20.8396 145.726 22.007C144.186 23.1738 142.954 24.5402 142.03 26.1068C141.106 27.6709 140.421 29.3631 139.996 31.128H139.812V19.4267H137.963V66.7847H139.812V66.7841ZM160.975 43.474H200.715C200.838 40.2185 200.515 37.0864 199.745 34.0765C198.975 31.0666 197.742 28.3945 196.048 26.0609C194.354 23.7267 192.166 21.8532 189.486 20.4403C186.806 19.0274 183.618 18.3213 179.921 18.3213C177.271 18.3213 174.684 18.8743 172.158 19.9802C169.632 21.0857 167.413 22.6976 165.504 24.8167C163.594 26.9357 162.054 29.5309 160.883 32.6028C159.713 35.6735 159.127 39.1745 159.127 43.1057C159.127 46.6067 159.527 49.8776 160.328 52.9179C161.129 55.9583 162.361 58.5999 164.025 60.8417C165.689 63.0835 167.83 64.8188 170.448 66.047C173.066 67.2757 176.224 67.8592 179.921 67.7978C185.343 67.7978 189.902 66.2771 193.599 63.2373C197.296 60.1964 199.483 55.9124 200.161 50.3841H198.312C197.511 55.6055 195.462 59.5212 192.166 62.1313C188.87 64.742 184.727 66.047 179.736 66.047C176.347 66.047 173.482 65.4636 171.141 64.2968C168.8 63.13 166.89 61.5324 165.411 59.5057C163.933 57.4784 162.839 55.0984 162.131 52.365C161.422 49.6321 161.037 46.6681 160.975 43.474ZM198.866 41.6314H160.976C161.16 38.3146 161.776 35.3357 162.823 32.6946C163.871 30.0529 165.242 27.7956 166.936 25.9227C168.63 24.0491 170.602 22.6213 172.851 21.6381C175.1 20.6554 177.518 20.1638 180.106 20.1638C183.187 20.1638 185.897 20.7323 188.239 21.8687C190.579 23.0051 192.536 24.5562 194.107 26.5216C195.678 28.4869 196.864 30.7751 197.665 33.3853C198.466 35.9959 198.866 38.7448 198.866 41.6314ZM239.069 33.4317H240.917C240.917 28.149 239.376 24.3102 236.296 21.9146C233.215 19.5191 229.025 18.3213 223.727 18.3213C220.769 18.3213 218.274 18.6901 216.241 19.4273C214.208 20.1638 212.544 21.1161 211.25 22.2829C209.957 23.4497 209.033 24.7398 208.478 26.1527C207.923 27.5656 207.646 28.9171 207.646 30.2067C207.646 32.7864 208.108 34.844 209.033 36.3797C209.957 37.9153 211.405 39.1131 213.376 39.973C214.732 40.5868 216.271 41.1398 217.997 41.632C219.722 42.123 221.725 42.6451 224.004 43.1975C226.037 43.6897 228.04 44.1807 230.012 44.6718C231.983 45.1634 233.724 45.8236 235.233 46.6526C236.743 47.4821 237.975 48.5416 238.93 49.8317C239.884 51.1213 240.362 52.8107 240.362 54.8988C240.362 56.926 239.885 58.6458 238.93 60.0581C237.983 61.4637 236.736 62.6436 235.279 63.5138C233.801 64.4041 232.152 65.0489 230.335 65.4481C228.517 65.8474 226.746 66.047 225.021 66.047C219.414 66.047 215.117 64.8033 212.128 62.316C209.14 59.8281 207.647 55.9124 207.647 50.5683H205.798C205.798 56.5267 207.415 60.8876 210.65 63.652C213.885 66.4159 218.675 67.7978 225.021 67.7978C227.054 67.7978 229.102 67.5672 231.167 67.1065C233.23 66.6459 235.079 65.8938 236.712 64.8492C238.33 63.8194 239.69 62.4326 240.685 60.7958C241.702 59.1369 242.211 57.1102 242.211 54.7146C242.211 52.4418 241.764 50.5993 240.871 49.1864C239.977 47.774 238.807 46.6067 237.358 45.6854C235.911 44.7641 234.278 44.0425 232.461 43.5204C230.633 42.9953 228.799 42.4884 226.961 41.9997C224.699 41.4081 222.435 40.8246 220.169 40.2495C218.228 39.7579 216.426 39.1745 214.763 38.4987C213.161 37.823 211.882 36.8558 210.927 35.5967C209.972 34.3375 209.495 32.5408 209.495 30.2067C209.495 29.777 209.618 29.0089 209.864 27.9035C210.111 26.7975 210.696 25.6766 211.62 24.5402C212.544 23.4044 213.961 22.3907 215.872 21.4999C217.781 20.6095 220.4 20.1638 223.727 20.1638C226.007 20.1638 228.086 20.4099 229.965 20.901C231.844 21.3926 233.462 22.1756 234.817 23.2506C236.173 24.3256 237.22 25.6921 237.959 27.3505C238.699 29.0095 239.069 31.0362 239.069 33.4317ZM281.858 33.4317H283.706C283.706 28.149 282.166 24.3102 279.085 21.9146C276.005 19.5191 271.815 18.3213 266.516 18.3213C263.559 18.3213 261.064 18.6901 259.031 19.4273C256.997 20.1638 255.334 21.1161 254.04 22.2829C252.746 23.4497 251.822 24.7398 251.267 26.1527C250.713 27.5656 250.436 28.9171 250.436 30.2067C250.436 32.7864 250.898 34.844 251.822 36.3797C252.746 37.9153 254.194 39.1131 256.166 39.973C257.521 40.5868 259.061 41.1398 260.786 41.632C262.511 42.123 264.514 42.6451 266.793 43.1975C268.827 43.6897 270.829 44.1807 272.801 44.6718C274.773 45.1634 276.513 45.8236 278.023 46.6526C279.532 47.4821 280.764 48.5416 281.719 49.8317C282.674 51.1213 283.152 52.8107 283.152 54.8988C283.152 56.926 282.674 58.6458 281.719 60.0581C280.772 61.4636 279.526 62.6435 278.069 63.5138C276.59 64.4041 274.942 65.0489 273.124 65.4481C271.307 65.8474 269.535 66.047 267.81 66.047C262.203 66.047 257.906 64.8033 254.918 62.316C251.93 59.8281 250.436 55.9124 250.436 50.5683H248.588C248.588 56.5267 250.204 60.8876 253.439 63.652C256.674 66.4159 261.464 67.7978 267.81 67.7978C269.844 67.7978 271.892 67.5672 273.956 67.1065C276.02 66.6459 277.868 65.8938 279.501 64.8492C281.12 63.8194 282.48 62.4326 283.475 60.7958C284.492 59.1369 285 57.1102 285 54.7146C285 52.4418 284.553 50.5993 283.66 49.1864C282.767 47.774 281.596 46.6067 280.148 45.6854C278.7 44.7641 277.067 44.0425 275.25 43.5204C273.422 42.9953 271.589 42.4884 269.751 41.9997C267.489 41.4081 265.225 40.8246 262.958 40.2495C261.018 39.7579 259.215 39.1745 257.552 38.4987C255.95 37.823 254.671 36.8558 253.717 35.5967C252.762 34.3375 252.284 32.5408 252.284 30.2067C252.284 29.777 252.407 29.0089 252.654 27.9035C252.9 26.7975 253.486 25.6766 254.41 24.5402C255.334 23.4044 256.751 22.3907 258.661 21.4999C260.571 20.6095 263.189 20.1638 266.517 20.1638C268.796 20.1638 270.875 20.4099 272.755 20.901C274.634 21.3926 276.251 22.1756 277.607 23.2506C278.962 24.3256 280.009 25.6921 280.749 27.3505C281.488 29.0095 281.858 31.0362 281.858 33.4317H281.858Z" fill="#E40037"/>
<path d="M2.84822 64.9416V33.4317H42.3109V31.5886H2.84822V2.84256H44.8059V1H1V66.7841H45.1753V64.9416H2.84877H2.84822ZM80.7569 19.4267L64.3991 40.8943L48.4103 19.4273H46.0073L63.2897 42.2768L44.3433 66.7836H46.5615L64.398 43.6576L82.3272 66.7836H84.6375L65.5995 42.2757L82.9739 19.4262H80.7563L80.7569 19.4267ZM90.1832 83V53.5174H90.3679C91.4773 57.8169 93.6644 61.2719 96.9299 63.8826C100.195 66.4927 104.354 67.7983 109.406 67.7983C112.671 67.7983 115.567 67.1381 118.093 65.8175C120.619 64.497 122.729 62.7003 124.424 60.4275C126.118 58.1548 127.412 55.5137 128.306 52.5038C129.199 49.4944 129.646 46.3307 129.646 43.0145C129.646 39.4515 129.183 36.1651 128.259 33.1558C127.335 30.1458 125.995 27.5352 124.239 25.3243C122.483 23.1129 120.358 21.3926 117.862 20.1649C115.367 18.9362 112.548 18.3218 109.406 18.3218C107.003 18.3218 104.77 18.6752 102.706 19.3814C100.642 20.0881 98.8092 21.0857 97.2072 22.3758C95.5959 23.6758 94.1934 25.2138 93.0482 26.9363C91.8778 28.6871 90.9842 30.6065 90.3679 32.6951H90.1832V19.4267H88.335V83H90.1832ZM109.406 66.047C103.615 66.047 98.9628 64.0662 95.4511 60.1046C91.9394 56.143 90.1832 50.4455 90.1832 43.0134C90.1832 39.9421 90.6148 37.0245 91.4773 34.2606C92.3398 31.4968 93.5873 29.0703 95.2198 26.9822C96.8528 24.8936 98.8707 23.2351 101.273 22.007C103.676 20.7782 106.387 20.1638 109.406 20.1638C112.487 20.1638 115.182 20.7782 117.493 22.007C119.803 23.2351 121.713 24.909 123.223 27.0281C124.732 29.1472 125.872 31.5737 126.642 34.3065C127.412 37.04 127.797 39.9421 127.797 43.0134C127.797 45.7777 127.443 48.5267 126.734 51.2595C126.026 53.993 124.932 56.4499 123.453 58.6309C121.975 60.8108 120.081 62.5919 117.77 63.9744C115.459 65.3563 112.671 66.047 109.406 66.047ZM139.812 66.7841V39.973C139.812 37.3933 140.181 34.8745 140.921 32.4181C141.66 29.9611 142.8 27.7956 144.34 25.9227C145.88 24.0491 147.836 22.5749 150.209 21.4999C152.581 20.4249 155.399 19.9797 158.665 20.1638V18.3213C155.83 18.2605 153.351 18.5668 151.225 19.2426C149.099 19.9183 147.267 20.8396 145.726 22.007C144.186 23.1738 142.954 24.5402 142.03 26.1068C141.106 27.6709 140.421 29.3631 139.996 31.128H139.812V19.4267H137.963V66.7847H139.812V66.7841ZM160.975 43.474H200.715C200.838 40.2185 200.515 37.0864 199.745 34.0765C198.975 31.0666 197.742 28.3945 196.048 26.0609C194.354 23.7267 192.166 21.8532 189.486 20.4403C186.806 19.0274 183.618 18.3213 179.921 18.3213C177.271 18.3213 174.684 18.8743 172.158 19.9802C169.632 21.0857 167.413 22.6976 165.504 24.8167C163.594 26.9357 162.054 29.5309 160.883 32.6028C159.713 35.6735 159.127 39.1745 159.127 43.1057C159.127 46.6067 159.527 49.8776 160.328 52.9179C161.129 55.9583 162.361 58.5999 164.025 60.8417C165.689 63.0835 167.83 64.8188 170.448 66.047C173.066 67.2757 176.224 67.8592 179.921 67.7978C185.343 67.7978 189.902 66.2771 193.599 63.2373C197.296 60.1964 199.483 55.9124 200.161 50.3841H198.312C197.511 55.6055 195.462 59.5212 192.166 62.1313C188.87 64.742 184.727 66.047 179.736 66.047C176.347 66.047 173.482 65.4636 171.141 64.2968C168.8 63.13 166.89 61.5324 165.411 59.5057C163.933 57.4784 162.839 55.0984 162.131 52.365C161.422 49.6321 161.037 46.6681 160.975 43.474ZM198.866 41.6314H160.976C161.16 38.3146 161.776 35.3357 162.823 32.6946C163.871 30.0529 165.242 27.7956 166.936 25.9227C168.63 24.0491 170.602 22.6213 172.851 21.6381C175.1 20.6554 177.518 20.1638 180.106 20.1638C183.187 20.1638 185.897 20.7323 188.239 21.8687C190.579 23.0051 192.536 24.5562 194.107 26.5216C195.678 28.4869 196.864 30.7751 197.665 33.3853C198.466 35.9959 198.866 38.7448 198.866 41.6314ZM239.069 33.4317H240.917C240.917 28.149 239.376 24.3102 236.296 21.9146C233.215 19.5191 229.025 18.3213 223.727 18.3213C220.769 18.3213 218.274 18.6901 216.241 19.4273C214.208 20.1638 212.544 21.1161 211.25 22.2829C209.957 23.4497 209.033 24.7398 208.478 26.1527C207.923 27.5656 207.646 28.9171 207.646 30.2067C207.646 32.7864 208.108 34.844 209.033 36.3797C209.957 37.9153 211.405 39.1131 213.376 39.973C214.732 40.5868 216.271 41.1398 217.997 41.632C219.722 42.123 221.725 42.6451 224.004 43.1975C226.037 43.6897 228.04 44.1807 230.012 44.6718C231.983 45.1634 233.724 45.8236 235.233 46.6526C236.743 47.4821 237.975 48.5416 238.93 49.8317C239.884 51.1213 240.362 52.8107 240.362 54.8988C240.362 56.926 239.885 58.6458 238.93 60.0581C237.983 61.4637 236.736 62.6436 235.279 63.5138C233.801 64.4041 232.152 65.0489 230.335 65.4481C228.517 65.8474 226.746 66.047 225.021 66.047C219.414 66.047 215.117 64.8033 212.128 62.316C209.14 59.8281 207.647 55.9124 207.647 50.5683H205.798C205.798 56.5267 207.415 60.8876 210.65 63.652C213.885 66.4159 218.675 67.7978 225.021 67.7978C227.054 67.7978 229.102 67.5672 231.167 67.1065C233.23 66.6459 235.079 65.8938 236.712 64.8492C238.33 63.8194 239.69 62.4326 240.685 60.7958C241.702 59.1369 242.211 57.1102 242.211 54.7146C242.211 52.4418 241.764 50.5993 240.871 49.1864C239.977 47.774 238.807 46.6067 237.358 45.6854C235.911 44.7641 234.278 44.0425 232.461 43.5204C230.633 42.9953 228.799 42.4884 226.961 41.9997C224.699 41.4081 222.435 40.8246 220.169 40.2495C218.228 39.7579 216.426 39.1745 214.763 38.4987C213.161 37.823 211.882 36.8558 210.927 35.5967C209.972 34.3375 209.495 32.5408 209.495 30.2067C209.495 29.777 209.618 29.0089 209.864 27.9035C210.111 26.7975 210.696 25.6766 211.62 24.5402C212.544 23.4044 213.961 22.3907 215.872 21.4999C217.781 20.6095 220.4 20.1638 223.727 20.1638C226.007 20.1638 228.086 20.4099 229.965 20.901C231.844 21.3926 233.462 22.1756 234.817 23.2506C236.173 24.3256 237.22 25.6921 237.959 27.3505C238.699 29.0095 239.069 31.0362 239.069 33.4317ZM281.858 33.4317H283.706C283.706 28.149 282.166 24.3102 279.085 21.9146C276.005 19.5191 271.815 18.3213 266.516 18.3213C263.559 18.3213 261.064 18.6901 259.031 19.4273C256.997 20.1638 255.334 21.1161 254.04 22.2829C252.746 23.4497 251.822 24.7398 251.267 26.1527C250.713 27.5656 250.436 28.9171 250.436 30.2067C250.436 32.7864 250.898 34.844 251.822 36.3797C252.746 37.9153 254.194 39.1131 256.166 39.973C257.521 40.5868 259.061 41.1398 260.786 41.632C262.511 42.123 264.514 42.6451 266.793 43.1975C268.827 43.6897 270.829 44.1807 272.801 44.6718C274.773 45.1634 276.513 45.8236 278.023 46.6526C279.532 47.4821 280.764 48.5416 281.719 49.8317C282.674 51.1213 283.152 52.8107 283.152 54.8988C283.152 56.926 282.674 58.6458 281.719 60.0581C280.772 61.4636 279.526 62.6435 278.069 63.5138C276.59 64.4041 274.942 65.0489 273.124 65.4481C271.307 65.8474 269.535 66.047 267.81 66.047C262.203 66.047 257.906 64.8033 254.918 62.316C251.93 59.8281 250.436 55.9124 250.436 50.5683H248.588C248.588 56.5267 250.204 60.8876 253.439 63.652C256.674 66.4159 261.464 67.7978 267.81 67.7978C269.844 67.7978 271.892 67.5672 273.956 67.1065C276.02 66.6459 277.868 65.8938 279.501 64.8492C281.12 63.8194 282.48 62.4326 283.475 60.7958C284.492 59.1369 285 57.1102 285 54.7146C285 52.4418 284.553 50.5993 283.66 49.1864C282.767 47.774 281.596 46.6067 280.148 45.6854C278.7 44.7641 277.067 44.0425 275.25 43.5204C273.422 42.9953 271.589 42.4884 269.751 41.9997C267.489 41.4081 265.225 40.8246 262.958 40.2495C261.018 39.7579 259.215 39.1745 257.552 38.4987C255.95 37.823 254.671 36.8558 253.717 35.5967C252.762 34.3375 252.284 32.5408 252.284 30.2067C252.284 29.777 252.407 29.0089 252.654 27.9035C252.9 26.7975 253.486 25.6766 254.41 24.5402C255.334 23.4044 256.751 22.3907 258.661 21.4999C260.571 20.6095 263.189 20.1638 266.517 20.1638C268.796 20.1638 270.875 20.4099 272.755 20.901C274.634 21.3926 276.251 22.1756 277.607 23.2506C278.962 24.3256 280.009 25.6921 280.749 27.3505C281.488 29.0095 281.858 31.0362 281.858 33.4317H281.858Z" stroke="#E40037" stroke-width="2" mask="url(#path-1-outside-1_110_626)"/>
</svg>
