<svg width="125" height="127" viewBox="0 0 125 127" fill="none" xmlns="http://www.w3.org/2000/svg">
<g clip-path="url(#clip0_105_3)">
<path d="M124.47 63.1797C124.453 63.7613 124.74 63.5561 124.791 63.6416C124.706 62.6665 124.402 63.2139 124.47 63.1797Z" fill="#E40037"/>
<path d="M122.643 52.4363L123.032 53.6338L123.167 53.7707L122.643 52.4363Z" fill="#E40037"/>
<path d="M121.003 44.892C120.749 45.85 122.001 47.9884 122.153 49.5965L122.102 49.8702L122.643 50.4861C122.39 49.5452 122.085 48.4674 121.764 47.4752C121.426 46.5001 121.138 45.5592 121.003 44.892Z" fill="#E40037"/>
<path d="M120.394 39.9822C120.326 40.3415 119.853 39.0584 120.749 41.06C120.732 40.9574 120.732 40.9231 120.715 40.8547C120.648 40.6665 120.546 40.427 120.394 39.9822Z" fill="#E40037"/>
<path d="M120.715 40.8547C121.087 41.7443 120.648 40.2046 120.715 40.8547V40.8547Z" fill="#E40037"/>
<path d="M118.906 36.8174L119.582 37.8951C119.582 37.6043 119.142 36.5608 119.379 36.92C118.77 35.7567 118.77 36.0647 118.906 36.8174Z" fill="#E40037"/>
<path d="M118.077 35.8936C118.195 36.0818 118.314 36.2529 118.415 36.441C118.432 36.3213 118.381 36.1502 118.077 35.8936Z" fill="#E40037"/>
<path d="M119.126 37.6385L118.415 36.441C118.415 36.6463 118.28 36.7319 118.72 36.9885C118.567 36.9543 118.804 37.1424 119.126 37.6385Z" fill="#E40037"/>
<path d="M119.379 38.3913C119.582 39.0756 119.836 39.948 119.21 38.8532C119.701 39.948 119.971 40.3928 120.022 40.2731C120.056 40.1533 119.904 39.469 119.379 38.3913Z" fill="#E40037"/>
<path d="M120.377 44.6183C120.428 44.9262 120.478 45.2342 120.512 45.5421L120.884 46.2606C120.783 46.0724 120.698 45.6447 120.614 45.2513C120.546 44.8749 120.445 44.567 120.377 44.6183Z" fill="#E40037"/>
<path d="M115.405 29.7521C115.27 29.735 115.388 30.2653 115.337 30.4022C115.54 30.6417 115.726 30.8812 115.912 31.1378C115.743 30.693 115.304 29.8889 115.405 29.7521Z" fill="#E40037"/>
<path d="M115.337 30.4193L114.441 29.3415C115.084 30.4022 115.287 30.539 115.337 30.4193Z" fill="#E40037"/>
<path d="M117.485 35.9278C117.959 36.5437 118.348 37.1937 118.77 37.8267C118.28 37.0569 117.806 36.2871 117.282 35.5515L117.485 35.9278Z" fill="#E40037"/>
<path d="M112.429 25.3213L113.088 25.8174C112.716 25.4924 112.344 25.2016 111.955 24.9107L112.429 25.3213Z" fill="#E40037"/>
<path d="M110.213 22.567C110.754 22.875 109.943 21.7288 110.45 22.1223C109.79 21.4209 109.131 20.8905 108.522 20.4457C109.114 20.9761 109.621 21.6432 110.213 22.567Z" fill="#E40037"/>
<path d="M107.507 19.7101C107.812 19.9668 108.15 20.1891 108.522 20.4629C108.201 20.1891 107.862 19.9325 107.507 19.7101Z" fill="#E40037"/>
<path d="M113.173 27.34C113.156 27.2202 113.173 26.9465 112.784 26.2622L112.851 26.8781C112.97 27.032 113.071 27.186 113.173 27.34Z" fill="#E40037"/>
<path d="M112.868 26.9123V26.8952C112.53 26.3991 112.31 26.074 112.209 25.9201C112.293 26.0398 112.496 26.3478 112.868 26.9123Z" fill="#E40037"/>
<path d="M113.257 27.4597C113.223 27.4255 113.206 27.3913 113.173 27.34C113.19 27.4084 113.19 27.4426 113.257 27.4597Z" fill="#E40037"/>
<path d="M116.048 32.609C115.506 31.976 114.526 30.6246 115.101 32.1642C115.574 32.5577 115.236 31.6681 116.048 32.609Z" fill="#E40037"/>
<path d="M113.342 28.2296C113.595 28.6401 113.832 29.0678 114.086 29.4955C114.137 29.4271 114.086 29.1362 114.373 29.4442C114.018 29.0336 113.697 28.6059 113.342 28.2296Z" fill="#E40037"/>
<path d="M113.054 27.7677L112.851 27.6821L113.342 28.2296L113.054 27.7677Z" fill="#E40037"/>
<path d="M108.995 21.7801C108.488 21.3695 108.032 20.8563 107.457 20.3089C107.998 20.9589 108.556 21.6261 109.08 22.2591C109.232 22.2933 109.587 22.4473 108.995 21.7801Z" fill="#E40037"/>
<path d="M110.923 24.2435C110.89 24.2093 110.856 24.1751 110.822 24.1409C110.856 24.2264 110.89 24.2778 110.923 24.2435Z" fill="#E40037"/>
<path d="M101.893 14.9885C101.909 15.0227 101.926 15.0741 101.943 15.1083C101.96 15.1083 101.977 15.0912 101.994 15.0912L101.893 14.9885Z" fill="#E40037"/>
<path d="M109.131 22.396C109.503 22.9092 109.79 23.1487 110.095 23.3711C109.773 23.0289 109.418 22.6697 109.08 22.2591C109.012 22.242 108.995 22.2591 109.131 22.396Z" fill="#E40037"/>
<path d="M105.901 18.256C106.104 18.5297 106.323 18.8377 106.56 19.1456C106.408 18.8377 106.036 18.2731 105.901 18.256Z" fill="#E40037"/>
<path d="M110.754 23.9185C110.771 23.9356 110.805 23.9527 110.822 23.9869C110.754 23.7816 110.737 23.8159 110.754 23.9185Z" fill="#E40037"/>
<path d="M110.754 23.9185C110.518 23.6961 110.315 23.5251 110.095 23.3711C110.348 23.6619 110.585 23.9185 110.822 24.1409C110.788 24.0725 110.771 23.987 110.754 23.9185Z" fill="#E40037"/>
<path d="M98.9161 15.0398C99.1529 14.903 100.624 15.6557 101.47 16.8361C102.637 17.5888 102.569 16.3229 101.96 15.1083C101.842 15.1767 101.791 15.228 100.557 14.4753C100.878 14.8859 102.755 16.8019 101.69 16.2031C100.946 15.6215 100.641 15.382 100.472 15.1596C100.303 14.9543 100.252 14.7832 99.9308 14.4411C100.337 15.1938 97.7492 13.3462 97.7661 14.0305C98.2566 14.2871 98.7132 14.595 99.1698 14.8859C99.1529 14.9543 98.6117 14.6977 98.9161 15.0398Z" fill="#E40037"/>
<path d="M104.007 16.9558L104.463 17.3493C104.007 16.8361 103.719 16.4426 103.178 15.6728C102.332 15.1254 102.112 15.0569 102.011 15.0912C102.738 15.7583 103.482 16.3913 104.176 17.0756L104.007 16.9558Z" fill="#E40037"/>
<path d="M106.374 19.214C105.85 19.0772 104.717 18.2047 105.14 19.0258C106.374 20.2234 106.154 19.7272 106.966 20.3773C104.987 18.3758 107.643 20.8563 106.357 19.2482C106.78 19.6246 107.135 19.9667 107.456 20.3089C107.135 19.9154 106.831 19.522 106.543 19.1456C106.56 19.1627 106.56 19.1798 106.577 19.214L106.594 19.2311C106.645 19.3509 106.662 19.3851 106.577 19.2825C106.56 19.2825 106.543 19.2482 106.526 19.2482C106.493 19.2482 106.425 19.2311 106.374 19.214C105.85 18.5811 106.34 19.0601 106.543 19.2311C106.56 19.2311 106.594 19.2311 106.594 19.2311C106.594 19.2311 106.594 19.2311 106.594 19.214C105.918 18.564 105.173 17.9652 104.463 17.3493C104.852 17.7941 105.41 18.2902 106.374 19.214Z" fill="#E40037"/>
<path d="M113.815 31.2062C113.798 31.1207 113.815 31.1036 113.832 31.0865C113.697 30.9667 113.629 30.9325 113.815 31.2062Z" fill="#E40037"/>
<path d="M113.342 30.1456C113.477 30.2995 113.68 30.368 114.001 30.9496C114.238 31.4799 113.883 31.018 113.815 31.1036C114.103 31.3944 114.729 32.1642 114.204 31.0351L114.069 30.8983C113.562 29.9061 113.088 28.469 113.223 28.6059C113.173 29.0336 113.173 29.3757 113.342 30.1456Z" fill="#E40037"/>
<path d="M110.044 24.5173C109.537 23.9185 108.996 23.3711 108.454 22.8236L109.029 23.8843L109.114 23.7303C109.892 24.791 109.841 24.4659 110.044 24.5173Z" fill="#E40037"/>
<path d="M101.791 14.6977L102.231 14.6635C101.791 14.4753 101.335 14.3213 100.895 14.1503L101.791 14.6977Z" fill="#E40037"/>
<path d="M99.3559 12.8159L99.6095 12.6619C99.3559 12.5422 99.1022 12.4395 98.8485 12.3198L99.3559 12.8159Z" fill="#E40037"/>
<path d="M10.7727 94.2294L11.1617 94.7597C10.9926 94.5031 10.8742 94.3491 10.7727 94.2294Z" fill="#E40037"/>
<path d="M8.54033 90.021L8.37122 89.9697C8.52342 90.1407 8.62489 90.1921 8.54033 90.021Z" fill="#E40037"/>
<path d="M28.8512 9.71948C27.8703 10.0445 26.7034 10.3353 26.974 10.5235L27.3968 10.6091C27.9549 10.1814 28.4284 9.92477 28.8512 9.71948Z" fill="#E40037"/>
<path d="M2.1139 51.5296C2.16464 51.4441 2.19846 51.3586 2.24919 51.2559C2.19846 50.9993 2.16464 50.7598 2.1139 50.5374C2.1139 50.8453 2.09699 51.1704 2.1139 51.5296Z" fill="#E40037"/>
<path d="M3.19628 52.4534L2.79041 53.6852C2.90879 53.3943 3.04408 53.0009 3.19628 52.4534Z" fill="#E40037"/>
<path d="M28.4623 112.893C28.7329 112.962 28.9865 113.03 29.2571 113.064C28.2762 112.397 28.6314 112.808 28.4623 112.893Z" fill="#E40037"/>
<path d="M70.7413 0.960554C69.8958 0.73816 69.2193 0.601301 68.6105 0.498657C69.6421 0.806588 70.4369 1.18295 70.7413 0.960554Z" fill="#E40037"/>
<path d="M7.06903 94.1438C7.32271 94.486 7.47491 94.6057 7.52564 94.5715C7.25506 94.2294 7.08594 94.0412 7.06903 94.1438Z" fill="#E40037"/>
<path d="M66.1245 0.293373C66.2767 0.327588 66.4289 0.361802 66.5811 0.396016C67.2237 0.396016 67.8663 0.378909 68.6274 0.49866C67.8663 0.276265 66.9869 0.156515 66.1245 0.293373Z" fill="#E40037"/>
<path d="M110.974 97.189C111.025 97.1376 111.076 97.0692 111.126 97.035C111.093 96.9837 111.042 97.0521 110.974 97.189Z" fill="#E40037"/>
<path d="M123.54 72.0413C123.523 72.3321 123.472 72.794 123.421 73.2217C123.472 73.0164 123.506 72.6571 123.54 72.0413Z" fill="#E40037"/>
<path d="M88.9214 6.26382C89.5133 6.53754 89.0229 6.28093 88.9214 6.26382V6.26382Z" fill="#E40037"/>
<path d="M91.1706 8.76149C91.0353 8.72727 90.9169 8.72727 90.8831 8.77859C90.9508 8.74438 91.0522 8.74438 91.1706 8.76149Z" fill="#E40037"/>
<path d="M59.7319 2.07254C59.715 2.07254 59.6981 2.07254 59.6812 2.07254C59.8672 2.12386 59.8334 2.10675 59.7319 2.07254Z" fill="#E40037"/>
<path d="M89.7331 6.82835C89.5302 6.69149 89.2934 6.52042 89.0397 6.36646C89.1412 6.45199 89.3611 6.58885 89.7331 6.82835Z" fill="#E40037"/>
<path d="M89.6824 6.64017C89.8684 6.75992 90.0206 6.84545 90.1728 6.93099C90.2743 6.93099 90.2235 6.86256 89.6824 6.64017Z" fill="#E40037"/>
<path d="M88.0927 5.90457C88.4309 6.05854 88.7354 6.2125 89.0398 6.36647C88.9383 6.29804 88.8876 6.26382 88.9214 6.26382C88.7523 6.19539 88.4986 6.09275 88.0927 5.90457Z" fill="#E40037"/>
<path d="M69.7097 123.876C69.7435 123.876 69.7943 123.876 69.845 123.893C70.4538 123.688 70.1832 123.739 69.7097 123.876Z" fill="#E40037"/>
<path d="M18.163 22.6526C18.1799 22.6355 18.1799 22.6184 18.1969 22.5841C18.1799 22.6012 18.1461 22.6184 18.1292 22.6355L18.163 22.6526Z" fill="#E40037"/>
<path d="M16.8608 24.483C17.1991 23.525 17.5711 23.1145 18.1292 22.6697C17.7572 22.6526 17.3682 22.6355 16.9961 22.6183L16.8608 24.483Z" fill="#E40037"/>
<path d="M17.5035 103.399L16.6917 102.047C18.2307 103.176 18.9917 104.271 18.3322 102.937C17.9263 103.159 16.8947 102.064 15.9476 100.901C15.4741 100.32 15.0175 99.7379 14.5947 99.3102C14.2057 98.8825 13.8844 98.6259 13.6645 98.7115L13.2418 97.7535C13.4109 97.993 13.4785 98.0101 13.6307 98.2496C12.8528 96.3678 12.2271 97.4284 10.9418 95.1702C10.5359 94.3662 10.3668 93.7332 10.7557 94.2122L9.57193 92.5871C9.30134 92.0738 9.52119 92.1081 9.79178 92.6213C9.26752 91.7488 8.8109 90.825 8.32047 89.9354H8.35429C8.01606 89.6104 7.42415 88.7892 7.13665 88.3958C6.93371 87.626 7.39033 88.7208 7.40724 88.4813C7.11974 87.9852 6.79842 87.5062 6.51092 87.0101C6.49401 86.6337 6.68004 86.7535 6.89989 87.1127C7.15356 87.4549 7.45797 88.0194 7.67782 88.5668C7.77929 87.6431 7.59326 87.3693 7.25503 86.8732C6.95062 86.3771 6.49401 85.6757 6.15577 83.9992C6.35871 84.4953 6.61239 84.9572 6.83224 85.4362C6.89989 84.8546 6.74768 84.3071 6.59548 83.6742C6.44327 83.0241 6.24033 82.3056 6.10504 81.416C6.07122 81.8608 6.46018 85.0941 5.64843 83.4347C5.54696 82.9214 5.36093 82.2714 4.8874 81.3818C5.20872 81.2792 4.87049 80.3725 4.51535 79.2092L4.97196 79.1749C4.49843 77.9603 4.34623 78.0972 3.97417 77.3958C3.68668 75.9588 3.95726 75.5995 4.19403 75.2061C3.85579 72.9137 3.94035 76.8997 3.38227 74.1967C3.33153 73.7177 3.2808 73.2729 3.21315 72.8282C3.16242 72.4005 3.09477 71.9728 3.01021 71.5451C2.84109 70.6898 2.60433 69.7831 2.40139 68.6198C2.45213 67.2512 2.68889 68.8422 2.77345 68.3461L2.33375 67.1657C2.31683 66.8748 2.43521 66.9604 2.48595 67.0117C2.29992 66.0024 2.02933 66.9604 1.87713 65.3352C1.64037 65.1299 1.75875 64.2916 1.94478 63.2652C2.14772 62.2388 2.29992 61.0413 2.09698 60.0319C2.2661 59.5529 2.35066 60.2885 2.53668 60.1517C2.38448 57.4145 2.4183 57.808 2.23227 55.5156C2.40139 54.8997 2.57051 54.2668 2.79036 53.668C2.21536 55.0024 2.14772 53.1719 2.11389 51.5296C1.87713 51.9915 1.65728 52.4021 1.5389 52.6758C1.60654 51.8204 1.67419 50.948 1.80948 50.1097C1.94478 49.8189 2.04625 50.1097 2.1308 50.5545C2.1308 50.3834 2.1308 50.2124 2.1308 50.0755C2.48595 49.2201 2.63815 49.7505 2.73962 50.4348C2.58742 50.7085 2.4183 50.9993 2.2661 51.273C2.4183 51.9402 2.60433 52.5732 2.89183 52.5047C2.87492 52.3337 2.87492 52.0086 2.92565 51.6665C2.97639 51.8375 3.01021 51.9573 3.07786 51.8889C3.1455 51.8204 3.07786 51.5296 3.06094 51.119L3.66976 50.6743L3.51756 50.5032C3.85579 49.4596 4.19403 48.4161 4.5999 47.4068C4.63373 46.808 4.65064 46.2264 4.68446 45.6276C4.7352 45.0289 4.78593 44.4301 4.85358 43.78C4.92123 43.13 5.02269 42.4286 5.22563 41.6929C5.41166 40.9573 5.6146 40.1191 5.95284 39.2295C5.9021 40.2388 6.40945 39.6401 6.7815 39.8625C6.35871 40.2388 6.15577 40.9402 5.93592 41.7443C5.83445 42.1548 5.71607 42.5825 5.59769 43.0444C5.49622 43.4892 5.36093 43.9511 5.19181 44.413C5.56387 43.4721 5.68225 43.7458 5.66534 44.0195C5.86828 42.8904 6.1896 41.7785 6.4771 40.6494C6.7646 40.8547 6.98445 40.0677 7.4918 39.315C7.03518 39.4861 7.18738 38.8531 7.50871 37.9978C7.81312 37.1424 8.38811 36.116 8.59105 35.4317C8.82782 35.4659 8.89546 35.8765 8.06679 37.3648C9.3859 35.9449 8.40502 34.7987 9.74104 33.3959C9.5381 33.7552 9.40281 33.9433 9.41972 34.1486C9.57193 33.6696 9.9778 32.934 10.3329 32.3866C10.6881 31.8392 11.0263 31.5141 10.9587 31.8049L10.7388 32.1642C11.1278 31.5825 11.6013 30.864 12.0918 30.0771C12.5991 29.3073 13.1572 28.5032 13.6476 27.7334C14.6623 26.2451 15.4741 24.9278 15.3895 24.5857C15.4572 24.6199 15.6939 25.3213 15.6939 25.5266C16.2351 23.8501 16.8101 22.1393 17.5204 20.4628C17.588 21.13 19.5836 20.7708 18.2307 22.6183C18.738 22.2078 19.3299 21.6432 20.1924 20.5484C19.8204 20.805 18.8733 20.805 19.2792 20.3431C20.9027 19.5904 20.3277 19.7272 22.1711 18.6837C21.5961 19.0429 21.6299 17.9652 22.4586 17.2638C22.4079 17.4691 23.0336 17.8112 22.7968 18.1191C23.2873 17.3322 23.7777 16.5624 24.3189 15.8096C23.8792 16.34 24.6402 16.4084 25.2321 16.2031C25.0799 16.2202 25.5196 15.8781 26.0777 15.4504C26.6358 15.0398 27.3122 14.595 27.5659 14.3555L26.5512 14.8516C29.0203 13.2093 28.3269 12.2342 30.9144 10.6775C30.6777 11.0025 30.6607 11.9776 31.9968 11.3104C32.3688 10.609 33.7217 8.07716 36.0725 6.65726H36.6305C37.2225 6.29801 37.8144 5.92165 38.4232 5.59661C37.9327 6.09272 37.0026 7.05073 36.0217 7.99163C35.0409 8.94963 34.06 9.99318 33.3328 10.6433C34.3982 10.284 33.7387 10.7459 35.1931 9.95896C35.8019 9.89053 34.5335 10.6604 34.1107 10.8999C35.2607 10.3524 36.4107 9.78789 37.5945 9.32599C37.4254 9.15492 38.0342 8.74435 38.6769 8.33377C39.3195 7.95741 39.9791 7.59816 39.8438 7.4442C38.5923 8.07716 37.4085 8.8641 36.2078 9.5655C36.0386 9.39442 36.4445 8.84699 37.2225 8.19691C37.6114 7.87188 38.0849 7.51262 38.6599 7.20469C39.218 6.89676 39.8438 6.60594 40.5033 6.36644C41.2136 6.2809 40.3004 7.34155 40.4188 7.4613C40.554 7.32444 41.129 6.9823 41.721 6.7428C42.3129 6.50329 42.9048 6.2809 43.0401 6.29801L42.0254 6.91387C42.7695 6.7599 43.3106 6.40065 43.9025 6.07561C44.4945 5.75058 45.154 5.49397 46.0842 5.44265C46.693 5.27157 48.0459 5.54529 48.0966 5.25447C46.9805 4.96364 46.3547 3.40688 46.9466 2.85945C47.065 2.85945 47.9275 2.79102 48.8577 2.72259C49.7878 2.65416 50.7856 2.70548 51.1746 2.7568C52.2907 2.9792 49.7878 4.02274 50.7349 4.21092C50.7518 4.07406 51.2929 3.81745 51.5128 3.73192C52.1893 3.71481 51.3099 4.17671 52.7135 3.85167C52.8826 3.33845 55.6392 3.50952 53.3393 3.37267C54.7429 3.08184 54.8444 3.23581 56.5017 3.08184C55.9436 2.82523 57.9223 1.88433 59.3598 1.71326C59.2752 1.83301 59.6135 1.98698 59.7657 2.05541C60.5098 2.05541 61.1524 2.05541 61.7612 2.05541C62.3701 2.08962 62.9282 2.14094 63.4862 2.17516C64.0443 2.22648 64.5855 2.26069 65.1605 2.31202C65.7355 2.38045 66.3443 2.43177 67.0377 2.5002C67.2744 2.63705 68.5766 2.87656 68.0016 3.03052C68.3906 2.99631 68.7796 2.87655 69.6083 2.9792C71.1641 3.59506 67.748 2.80813 68.9149 3.4582C69.0502 3.20159 71.1134 3.32134 72.3141 3.40688C72.1619 3.16738 71.4854 2.99631 70.6906 2.94498C69.8957 2.89366 68.9825 2.91077 68.3737 2.92788C68.4075 2.63705 68.9487 2.39755 69.8619 2.26069C70.3185 2.19227 70.8766 2.12384 71.4854 2.12384C72.0943 2.12384 72.7876 2.15805 73.5148 2.22648C75.8148 2.53441 74.4281 2.80813 74.8339 2.79102C75.8825 3.06474 76.6435 3.18449 77.2692 3.23581C77.878 3.32134 78.3347 3.32134 78.7574 3.33845C79.6199 3.35556 80.3979 3.37267 82.0552 4.19382C83.2898 5.01496 81.8692 4.91232 82.089 5.27157C81.1758 5.03207 80.5332 4.74125 79.9413 4.46753C79.3493 4.21092 78.8251 3.97142 78.2163 3.80035L79.6707 4.3991C79.0619 4.34778 77.8442 4.10828 77.2185 3.81745C77.4891 3.98853 78.0472 4.19381 78.8082 4.43332C79.1802 4.55307 79.603 4.68993 80.0596 4.82678C80.4993 4.98075 80.9729 5.15182 81.4633 5.32289C81.9537 5.49397 82.4611 5.66504 82.9684 5.85322C83.4589 6.05851 83.9662 6.26379 84.4567 6.46908C85.4375 6.86255 86.3169 7.32444 87.0442 7.73502C87.6361 7.87188 88.6169 8.1627 88.2449 7.83766L87.264 7.4442C86.503 6.7599 89.2427 7.88898 88.0927 7.20469C88.786 7.39287 89.5133 7.64948 90.2912 7.94031C90.6802 8.09427 91.086 8.26534 91.4919 8.47063C91.8978 8.69303 92.3037 8.94963 92.7095 9.24046L92.8279 9.805C92.8618 9.68525 91.8132 8.91542 91.2721 8.76145C92.0838 9.03517 93.6566 10.763 94.6882 10.8314C94.35 10.4893 94.0117 10.1471 93.6397 9.8221C94.3162 10.0787 95.0772 10.4038 95.8551 10.763C96.65 11.1051 97.4279 11.567 98.1213 12.1658C97.6985 11.3447 97.7661 11.9605 96.9882 10.8143C97.597 11.9263 93.1154 8.28245 94.2823 9.78789C93.8595 9.20624 93.4029 8.8641 92.8956 8.52195C92.3882 8.1627 91.8301 7.78634 91.1706 7.18759C91.1537 7.34155 91.5934 7.7008 90.2743 6.94808C90.1897 6.94808 90.0206 6.93098 89.9191 6.91387C89.8853 6.89676 89.8684 6.87965 89.8346 6.86255C89.8515 6.87965 89.8853 6.89676 89.9022 6.91387C89.8346 6.89676 89.8346 6.89676 89.9191 6.93098C90.2066 7.15337 90.4434 7.35866 90.511 7.47841C90.1052 7.4613 89.378 7.15337 88.6339 6.86255C87.8897 6.58883 87.1456 6.2809 86.7397 6.19536C85.9618 5.76768 87.1456 6.19536 86.7566 5.85322C86.3508 5.75058 85.9618 5.66504 85.5559 5.61372C85.5728 5.28868 83.5265 4.24514 85.5728 4.861L83.7971 4.14249C82.7993 3.59506 81.3449 3.03052 80.3979 2.85945C79.5523 2.55152 78.1148 2.56862 78.9266 2.55152C78.4361 2.44887 77.9457 2.32912 77.4552 2.24359L75.9839 2.00409L75.967 1.91855C74.5464 1.52508 73.0075 1.42244 71.4685 1.20004C69.8958 1.06319 68.3061 0.823684 66.6487 0.447324C66.1583 0.447324 65.6509 0.447324 65.059 0.430217C64.4671 0.430217 63.8076 0.430217 62.9789 0.361788L62.6576 0.0880719C62.0149 0.105179 61.0679 0.0709639 60.1885 0.0538566C59.326 0.0367493 58.5311 0.0196423 58.2775 0.207822C57.9223 0.0538569 57.3473 -0.0145717 56.6708 0.00253559C55.9775 0.00253559 55.1826 0.0709641 54.354 0.207822C53.5253 0.34468 52.6797 0.464431 51.9018 0.618397C51.1238 0.789469 50.4135 0.926327 49.8554 0.994756L49.8385 1.35401C49.0775 1.45665 48.3503 1.69615 47.5724 1.90144C47.1834 2.02119 46.7944 2.14094 46.3717 2.26069C45.9658 2.39755 45.543 2.56862 45.0864 2.72259L45.2893 2.99631C44.5283 3.35556 43.4967 3.56085 42.3636 3.88588C41.7886 4.03985 41.1967 4.19382 40.5879 4.36489C39.9791 4.55307 39.3702 4.77546 38.7614 5.03207C38.8798 4.861 39.5055 4.6386 39.9621 4.53596C39.1842 4.65571 38.4063 4.91232 37.6622 5.22025C36.918 5.54529 36.2078 5.95586 35.5144 6.36644C34.8041 6.7599 34.1445 7.2218 33.4681 7.59816C32.7916 7.97452 32.132 8.29956 31.4556 8.55617C30.8975 9.01806 30.4409 9.22335 29.9674 9.41153C30.0181 9.37732 30.0688 9.3431 30.1027 9.30889C30.035 9.3431 29.9504 9.39442 29.849 9.44575C29.5446 9.54839 29.2402 9.66814 28.9358 9.8221C29.2232 9.71946 29.4938 9.61682 29.7137 9.53128C29.2402 9.805 28.5806 10.3011 27.938 10.8143L27.4644 10.7288C27.4137 10.763 27.363 10.7972 27.3122 10.8314C26.5681 11.1565 26.8725 11.3104 27.363 11.2933C27.0417 11.5499 26.788 11.8408 26.6019 12.0632C25.7733 12.0118 24.9784 13.4146 23.9637 13.5173C23.8284 13.791 23.0674 14.4753 22.3402 15.1596C21.6468 15.8952 20.9873 16.6308 21.0211 16.99C20.9535 16.9558 20.7505 17.0756 21.0718 16.7848C20.3446 17.3151 19.6682 17.8967 19.1946 18.5639L18.6197 18.5126C18.2814 19.0942 17.9432 19.693 17.6388 20.3089C16.641 20.9931 16.1844 21.2498 16.7594 20.1549C16.3535 20.7708 16.066 21.1813 15.8461 21.5064C15.6263 21.8314 15.4741 22.0538 15.305 22.2762C15.0006 22.7039 14.7131 23.0973 14.1381 24.1751L14.0028 23.9014C13.4785 24.6028 12.9204 25.92 12.4131 26.1938C12.0241 26.5017 11.4829 27.1518 10.8403 28.0071C10.1807 28.8454 9.52119 29.9745 8.74326 31.1378C7.32268 33.5328 5.85137 36.3555 4.65064 38.5623C5.22564 38.2886 4.8874 38.7676 4.49843 39.4006C4.12638 40.0335 3.68668 40.8034 3.94035 41.0086C3.65285 41.2139 3.29771 41.8298 3.44991 41.0086C3.04403 42.2404 2.72271 43.1471 2.40139 43.9511C2.08007 44.7551 1.89404 45.5079 1.89404 46.4317C1.62346 46.6712 1.77566 45.8158 1.58963 46.0382C1.57272 46.2435 1.52199 46.8764 1.35287 47.0988C1.16684 47.3212 1.30213 46.6883 1.33596 46.2777C1.16684 46.9107 1.06537 47.4239 1.03155 47.8173C1.01464 48.2279 1.03155 48.5187 1.0992 48.7582C1.21758 49.2201 1.47125 49.3912 1.72493 49.5452C1.45434 50.161 1.28522 50.6229 1.20066 51.0677C1.14993 51.5125 1.16684 51.9231 1.26831 52.4363C1.01464 52.8469 0.693315 53.5825 0.913166 51.9744C0.862432 52.1968 0.760963 52.6587 0.642582 53.2061C0.591847 53.4798 0.524199 53.7878 0.456553 54.0957C0.405818 54.4207 0.371994 54.7458 0.321259 55.0537C0.152143 56.3368 0.0506734 57.5172 0.287436 57.5856C0.152143 57.8593 0.152142 58.8515 0.185965 59.091C0.0844956 60.1004 0.0337617 60.6649 0.0337617 61.2123C0.0168501 61.7598 -6.10352e-05 62.3072 -6.10352e-05 63.3165L0.0844972 62.7691C0.574935 63.556 0.202879 64.4285 0.304349 66.0366L0.253614 65.9853C0.169055 66.909 0.185966 67.4736 0.202878 67.8499C0.21979 68.2263 0.253613 68.4316 0.287436 68.6198C0.32126 68.808 0.355083 69.0132 0.371995 69.3896C0.371995 69.766 0.388906 70.3134 0.405817 71.2372L0.710227 70.9977C1.08228 71.1174 1.08228 71.9386 1.04846 72.9821C1.04846 74.0257 1.06537 75.2916 1.38669 76.318L1.43743 75.5311C1.64037 76.0785 1.58963 76.8997 1.50507 77.7722C1.42052 78.6275 1.26831 79.5171 1.38669 80.0816C1.4036 80.3383 1.16684 79.7224 1.04846 79.3802C1.45434 82.4767 1.57272 79.654 2.28301 81.8266C2.18154 82.3056 1.5389 81.4844 1.96169 82.9728C1.99551 83.3662 2.51977 84.3756 3.09477 85.5389C3.7205 86.685 4.31241 88.0023 4.56608 89.0459C4.54917 88.5497 4.51535 88.0536 5.07343 88.9774C5.7499 90.4315 6.32489 93.2713 7.55944 94.2636C7.61018 94.4689 7.61018 94.5544 7.57635 94.5886C7.94841 95.0847 8.47267 95.9572 9.04767 96.7099C9.62266 97.4626 10.1807 98.1469 10.5021 98.3864C10.4006 98.797 10.6881 99.3615 11.1109 100.012C11.5506 100.662 12.1256 101.38 12.7344 102.03C13.3432 102.68 13.9013 103.313 14.3072 103.792C14.7131 104.271 14.8991 104.631 14.6962 104.802C15.1189 105.281 15.5248 105.76 15.9645 106.222L17.2836 107.59H17.1314C17.9263 108.514 18.5858 109.027 19.0932 109.403C19.6005 109.78 19.9895 109.985 20.3954 110.173C20.7674 110.601 20.3954 110.396 20.3277 110.413C21.5961 111.662 22.2895 112.346 23.0336 112.859C23.7777 113.372 24.488 113.817 25.8578 114.45L25.9086 114.912C26.6358 115.254 29.8321 118.299 33.1298 119.548C33.0791 119.565 32.9945 119.599 32.724 119.514C34.5504 120.25 36.546 121.481 38.3894 122.371C40.2158 123.277 41.8732 123.842 42.7356 123.483C43.5643 123.688 44.4268 123.774 45.2724 123.928C42.1268 122.918 45.8981 123.534 44.6467 122.97C45.2724 123.106 46.0503 123.431 46.4731 123.671C46.9128 123.893 46.9805 124.064 46.2025 123.876L45.9827 123.739C45.2386 124.27 49.9062 124.937 49.7371 125.313C56.1466 126.545 62.573 127.127 68.7119 126.494C68.4583 126.357 68.2046 126.22 67.9509 126.066C68.6612 126.015 69.3546 125.912 70.0649 125.826C70.6399 125.878 70.8597 126.117 69.3546 126.305C70.2002 126.494 71.8575 125.741 71.8744 125.587C74.8509 125.262 70.8259 126.374 71.7222 126.237L72.9398 125.98L72.6523 125.963C73.1259 125.775 73.3795 125.621 73.7347 125.467C74.0898 125.33 74.5464 125.194 75.4428 124.988C76.5928 124.817 76.0854 125.159 76.542 125.074C76.542 125.108 76.7111 125.091 77.2354 124.92C78.1148 124.697 78.9773 124.458 79.8567 124.218L78.7067 124.133C79.806 123.62 81.142 123.449 79.8229 123.363C80.7868 123.431 83.2052 122.713 85.4375 121.772C86.5706 121.327 87.6191 120.78 88.4985 120.386C89.361 119.976 90.0037 119.634 90.2743 119.548C90.6125 119.291 90.9507 119.052 91.3059 118.812C91.661 118.573 92.0162 118.333 92.3713 118.094C93.1154 117.632 93.9272 117.187 94.7728 116.623C94.2992 116.828 93.8088 116.606 95.3139 115.699C95.297 116.264 96.0411 115.938 96.9544 115.374C97.8507 114.792 98.9669 114.091 99.7279 113.886C99.0852 114.108 100.066 113.304 100.946 112.534C101.825 111.764 102.552 110.977 101.622 111.405C102.772 110.498 101.909 111.61 102.89 111.046C105.275 108.445 108.657 105.811 111.228 102.236C111.177 102.116 110.585 102.561 111.008 101.722C111.651 101.26 112.242 100.73 112.851 100.217C113.291 99.4642 112.767 99.1905 113.951 98.0956C113.748 98.2325 113.443 98.4206 113.714 97.9074C116.267 94.486 118.178 90.5 119.701 86.3942C121.223 82.2714 122.373 78.0459 123.607 73.8204C123.167 74.9495 123.286 74.1625 123.438 73.2729C123.286 73.8375 123.151 73.2216 122.964 73.3072C123.269 72.1268 123.59 70.9464 123.861 69.7489C123.658 69.3896 123.725 68.4145 123.793 67.4907C123.861 66.5498 123.844 65.6431 123.641 65.4549L123.692 66.6011C123.455 65.8313 123.167 66.3616 122.829 67.0288C122.474 67.696 122.085 68.5171 121.764 68.3803C121.882 68.808 121.865 69.287 121.781 69.8173C121.679 70.3476 121.51 70.9121 121.341 71.5109C121.037 72.7084 120.631 74.0086 120.8 75.4285C120.563 75.993 120.681 74.881 120.478 75.1719C120.648 75.9075 120.512 76.7286 120.039 78.1998L120.005 78.0117C119.802 79.0723 119.498 79.9619 119.261 80.783C119.024 81.6042 118.737 82.3398 118.432 83.0925C118.145 83.8452 117.84 84.598 117.434 85.4362C117.045 86.2745 116.656 87.2154 116.098 88.2931L116.538 88.1049C116.081 89.0459 115.895 89.1998 115.625 89.6104C115.591 90.9105 116.842 86.9588 116.893 88.1734C116.606 88.43 116.267 88.9603 115.912 89.6446C115.557 90.3289 115.134 91.1329 114.729 91.9199C114.34 92.7239 113.866 93.4595 113.477 94.0583C113.071 94.6399 112.733 95.0676 112.429 95.1702C111.566 96.5046 113.004 94.9821 112.141 96.3164L111.735 96.5559V97.0349C111.143 97.9074 110.602 98.164 110.45 98.0956C110.619 97.9074 110.822 97.4797 110.974 97.2573C110.484 97.7363 109.959 98.5233 109.503 99.2418C109.046 99.9432 108.623 100.542 108.471 100.713L109.503 99.5839C107.084 103.228 103.262 106.906 100.337 109.917L100.675 109.831C100.117 110.43 99.6941 110.806 99.3389 111.08C98.9838 111.354 98.7132 111.542 98.4257 111.73C97.8676 112.124 97.225 112.483 95.8382 113.561L95.9228 113.458C95.4492 114.005 94.6882 114.587 93.8595 115.1C94.5022 114.467 92.2698 115.716 93.1492 114.912C91.7625 115.956 91.3904 116.195 91.2044 116.435C91.0015 116.657 90.9677 116.862 90.0713 117.649L89.4794 117.666C88.8875 118.214 88.9044 118.419 87.3147 119.223C88.5324 118.419 86.1309 119.326 87.4838 118.402C86.5875 118.659 85.8434 118.949 85.2008 119.257C84.5581 119.548 84.0001 119.822 83.4927 120.096C82.4949 120.626 81.7001 120.968 80.7699 120.848C80.0766 121.464 80.8714 121.293 81.717 121.036C82.5795 120.797 83.4758 120.352 83.053 120.609C83.4589 120.575 83.1883 120.831 82.664 121.139C82.1398 121.43 81.3449 121.755 80.7868 121.909C80.2288 122.097 79.6707 122.046 78.9097 122.012C78.5207 122.012 78.0979 122.012 77.5905 122.08C77.3369 122.114 77.0494 122.148 76.7619 122.217C76.4575 122.268 76.1192 122.337 75.7641 122.422C76.0516 122.354 76.0516 122.302 76.3391 122.234C75.781 122.268 75.2736 122.456 74.7156 122.627C74.445 122.713 74.1575 122.798 73.8531 122.867C73.5487 122.918 73.2273 122.952 72.8891 122.935C72.2126 123.5 71.1641 123.226 71.0288 123.808L73.684 123.192C72.9398 123.397 72.2465 123.722 71.4009 124.03C70.5553 124.321 69.5575 124.509 68.2722 124.526C68.4583 124.389 69.2024 124.15 69.6928 123.996C68.9318 123.91 68.2891 124.304 67.4943 124.201C67.5789 123.928 68.3906 123.808 69.3884 123.654C69.8788 123.585 70.42 123.517 70.9443 123.414C71.4516 123.295 71.9421 123.158 72.331 122.97C71.9251 122.918 71.181 123.175 70.6229 123.312C70.0649 123.431 69.6928 123.5 70.0649 123.141C69.5237 123.585 68.7965 123.654 67.9847 123.722C67.1561 123.739 66.2259 123.739 65.245 124.116L65.3634 123.774C65.059 123.859 64.3995 124.03 63.8245 124.03L64.8561 123.568C63.2664 123.962 61.7613 123.363 60.2223 123.483C61.8289 123.517 62.0149 123.62 61.9642 123.739C61.9135 123.876 61.626 124.047 62.3193 124.15C58.2944 124.526 60.0363 123.312 55.6054 123.124C56.1973 123.141 57.8377 123.5 56.8907 123.585C56.0451 123.466 54.9459 123.209 54.4554 122.952C51.5297 122.645 54.8613 123.346 53.5929 123.397C52.6459 122.884 52.1385 123.329 50.8194 123.243L50.8701 122.918C50.0415 122.73 49.5849 122.645 49.2805 122.61C48.993 122.593 48.8746 122.662 48.7562 122.713C48.5363 122.833 48.3672 122.97 46.9128 122.491L48.2827 122.337C47.7584 122.251 47.2341 122.183 46.7099 122.08L47.1158 121.789C46.2533 121.704 45.6952 121.584 45.154 121.43C44.6128 121.276 44.0886 121.088 43.3106 120.746C43.6151 121.105 42.9217 121.259 41.4842 120.78C40.5879 120.232 42.1268 120.694 40.1313 119.959C40.6555 119.924 41.2136 119.907 41.9915 120.489C42.1099 120.421 42.4989 120.438 42.6342 120.369C41.6702 119.822 40.0805 119.36 39.3702 119.086C39.6408 119.206 39.9621 119.36 40.1143 119.463L38.6092 119.103L37.121 118.676C36.732 118.351 37.121 118.419 37.51 118.487C36.935 118.248 36.4614 118.248 35.6328 117.854C35.971 117.718 36.0217 117.461 37.2563 117.872C36.3261 117.581 35.4298 117.204 34.5166 116.845C34.3982 116.657 33.3497 115.853 33.7217 115.956C33.0622 115.477 32.149 115.1 31.185 114.673C30.238 114.194 29.2063 113.715 28.3946 112.996C28.2762 112.979 28.0563 112.893 27.6674 112.654C27.2615 112.346 26.8894 112.038 26.5174 111.713C26.1453 111.388 25.7902 111.063 25.4181 110.721C25.0461 110.396 24.6402 110.071 24.2174 109.746C23.7946 109.403 23.3549 109.078 22.8307 108.753C22.5939 108.326 22.3571 107.932 22.1373 107.487C20.7167 106.273 23.0505 109.215 20.666 107.18C18.9579 105.743 20.3616 106.307 19.9049 105.657C19.4483 105.349 18.7888 104.921 18.1123 104.357C17.4358 103.792 16.7932 103.022 16.2689 102.133C16.7763 102.509 17.0638 102.954 17.5035 103.399ZM5.69916 83.5031C5.80063 83.7084 5.96975 83.9992 6.12195 84.29C6.27416 84.5808 6.39254 84.8546 6.35871 85.0428C5.80063 84.7177 5.81754 84.2729 5.69916 83.5031ZM3.50065 48.245C3.51756 48.6043 3.34844 49.1004 3.09477 49.6478C3.17933 49.2372 3.2808 48.7582 3.50065 48.245ZM82.2582 3.81745C82.2412 3.81745 82.2243 3.81745 82.2074 3.81745C81.2435 3.33845 81.5817 3.50952 82.2582 3.81745ZM84.2537 4.70703C84.4736 4.74125 84.4736 4.68993 84.4059 4.6215C84.2368 4.6386 83.7802 4.46753 83.2559 4.24514C83.3743 4.36489 83.6111 4.53596 84.2537 4.70703ZM76.7619 124.851L76.3222 124.868C77.2354 124.543 76.9817 124.697 76.7619 124.851Z" fill="#E40037"/>
<path d="M3.07788 52.3337C2.99333 52.4534 2.92568 52.4705 2.85803 52.4876C2.89186 52.6758 2.9595 52.6929 3.07788 52.3337Z" fill="#E40037"/>
<path d="M28.3101 112.859L28.3608 112.911C28.4115 112.911 28.4284 112.911 28.4453 112.893L28.3101 112.859Z" fill="#E40037"/>
<path d="M51.5297 4.26225C51.1069 4.29647 50.8532 4.27936 50.6841 4.24515C50.6672 4.31358 50.8702 4.34779 51.5297 4.26225Z" fill="#E40037"/>
<path d="M94.8912 9.39446C94.4853 9.15496 94.0625 8.94967 93.6397 8.74438C94.2316 9.06942 94.4176 9.2576 94.6713 9.49711C94.6882 9.41157 94.5191 9.15496 94.8912 9.39446Z" fill="#E40037"/>
<path d="M103.212 18.41C103.381 18.5126 103.516 18.7008 103.685 18.8034L103.753 18.6495C103.127 18.0678 102.62 17.7428 103.212 18.41Z" fill="#E40037"/>
<path d="M95.3816 11.0539C95.314 11.3618 96.1258 11.721 96.9206 12.2514C96.8699 12.2172 96.8191 12.1829 96.7853 12.1487C97.2588 11.9948 96.3287 11.4815 95.3816 11.0539Z" fill="#E40037"/>
<path d="M97.1235 12.3711C97.3772 12.5422 97.6309 12.7133 97.8507 12.8843C98.0368 12.833 97.5801 12.6619 97.1235 12.3711Z" fill="#E40037"/>
<path d="M86.892 5.59662C87.2809 5.85323 87.2978 5.39133 87.5008 5.59662C88.1096 5.47687 84.4736 4.72415 86.892 5.59662Z" fill="#E40037"/>
<path d="M94.8405 11.721L95.5338 12.2514L95.4324 11.7724L94.8405 11.721Z" fill="#E40037"/>
<path d="M89.1243 8.21405L90.4434 9.00098C90.4434 8.93256 90.6464 9.00098 90.8662 9.08652C90.0376 8.64173 89.1412 8.0943 89.1243 8.21405Z" fill="#E40037"/>
<path d="M90.8662 9.08652C91.3059 9.32602 91.6949 9.56552 91.9655 9.65106C91.7287 9.5142 91.2383 9.22338 90.8662 9.08652Z" fill="#E40037"/>
<path d="M93.7242 11.2078L93.386 10.8999L92.4728 10.3354C92.8787 10.6262 93.3184 10.8828 93.7242 11.2078Z" fill="#E40037"/>
<path d="M73.5825 2.79104L71.9252 2.58575C71.7392 2.67129 72.1789 2.82526 72.7877 2.89368C73.1936 2.89368 73.8024 2.96211 73.5825 2.79104Z" fill="#E40037"/>
<path d="M78.2501 4.91234C77.8442 4.72416 77.8273 4.63862 77.6244 4.45044L77.4722 4.86101L78.2501 4.91234Z" fill="#E40037"/>
<path d="M73.5487 3.8688C73.3626 3.95434 71.1472 3.78327 73.1935 4.12541C73.3795 4.02277 75.02 4.26227 73.5487 3.8688Z" fill="#E40037"/>
<path d="M49.0099 2.80814L48.8069 3.57796L49.2128 3.49243L49.0099 2.80814Z" fill="#E40037"/>
<path d="M29.4939 13.6028C31.2019 12.7133 29.6461 12.9699 31.2188 12.2171C31.5063 11.8237 29.9166 12.833 30.238 12.4566C29.3586 13.2607 28.8005 13.5002 29.4939 13.6028Z" fill="#E40037"/>
<path d="M30.238 12.4737C30.3733 12.354 30.5255 12.2171 30.6777 12.0632C30.424 12.2685 30.3056 12.3882 30.238 12.4737Z" fill="#E40037"/>
<path d="M124.385 67.2854C124.47 66.8578 124.52 66.413 124.588 65.9682L124.334 66.8064C124.351 66.9775 124.368 67.1315 124.385 67.2854Z" fill="#E40037"/>
<path d="M123.945 64.7364L124.402 64.4285L124.013 63.6416C124.03 63.9495 124.047 64.514 123.945 64.7364Z" fill="#E40037"/>
<path d="M5.53007 79.9277L5.39478 79.8593C5.32713 80.0816 5.41169 80.3554 5.54699 80.9199L5.53007 79.9277Z" fill="#E40037"/>
<path d="M11.7535 95.769L11.9565 95.3413L11.8043 95.0847L11.7535 95.769Z" fill="#E40037"/>
<path d="M21.0718 105.914C20.666 105.52 20.1417 105.092 19.7697 104.665C20.666 105.537 20.8351 106.393 21.0718 105.914Z" fill="#E40037"/>
<path d="M62.3701 121.533C30.6269 121.533 4.81976 95.4098 4.81976 63.3165C4.81976 31.2062 30.6438 5.10052 62.3701 5.10052C94.1132 5.10052 119.92 31.2233 119.92 63.3165C119.92 95.4098 94.1132 121.533 62.3701 121.533ZM62.3701 5.78482C31.0159 5.78482 5.49623 31.5826 5.49623 63.3165C5.49623 95.0505 30.999 120.848 62.3701 120.848C93.7412 120.848 119.244 95.0505 119.244 63.3165C119.244 31.5826 93.7243 5.78482 62.3701 5.78482Z" fill="#E40037"/>
<g clip-path="url(#clip1_105_3)">
<g clip-path="url(#clip2_105_3)">
<path d="M17.2302 57.101C17.5255 62.2386 19.6462 67.3897 23.9949 71.7587L53.0803 100.98C55.4962 103.407 59.0799 101.951 59.0799 98.5526V41.5668C59.0799 41.0813 58.8786 40.488 58.5028 40.1104C53.9527 35.7414 49.8993 32.4377 43.0407 31.8579C41.4837 31.75 40.4234 32.9232 40.4234 34.3795V36.2269C40.4234 37.4809 41.3898 38.5462 42.7454 38.6541C46.7988 39.1395 49.604 40.9734 52.3152 43.5085V90.5967L28.7329 66.9043C25.8337 63.9916 24.2902 60.4991 23.9949 56.8987C23.807 55.5368 22.8406 54.5659 21.485 54.5659H19.6462C18.1966 54.5659 17.0423 55.6447 17.2302 57.101ZM69.898 100.98L98.9834 71.7587C103.721 66.9987 105.855 61.1733 105.855 55.348C105.855 43.3063 96.5674 31.75 82.6623 31.75C79.2799 31.75 76.5687 32.3433 74.0588 33.3142C71.5489 34.2851 69.4148 35.7414 67.2941 37.5753C66.4217 38.263 65.4553 39.1395 64.489 40.1104C64.0997 40.488 63.9118 41.0813 63.9118 41.5668V45.4503C63.9118 47.3921 65.9385 48.2551 67.2941 46.9067V93.9948L64.489 96.7996C64.0997 97.1906 63.9118 97.7704 63.9118 98.2559V102.139C63.9118 104.081 67.4821 103.407 69.898 100.98ZM74.0588 87.1985V40.8791C76.3808 39.4227 79.0786 38.5462 82.7562 38.5462C92.514 38.5462 99.0908 46.9067 99.0908 55.348C99.0908 59.4203 97.6412 63.6005 94.2589 66.9043L74.0588 87.1985Z" fill="white"/>
</g>
</g>
</g>
<defs>
<clipPath id="clip0_105_3">
<rect width="124.791" height="126.752" fill="white"/>
</clipPath>
<clipPath id="clip1_105_3">
<rect width="88.7681" height="71.6643" fill="white" transform="translate(17.2101 31.75)"/>
</clipPath>
<clipPath id="clip2_105_3">
<rect width="88.6453" height="71.5192" fill="white" transform="translate(17.2101 31.75)"/>
</clipPath>
</defs>
</svg>
