<svg width="99" height="108" viewBox="0 0 99 108" fill="none" xmlns="http://www.w3.org/2000/svg">
<path d="M45.0444 1.37109C47.7362 -0.155079 51.2422 -0.161973 53.9316 1.37109C67.4619 8.94411 80.9964 16.5053 94.5243 24.0829C97.0688 25.5026 98.7707 28.3075 98.7448 31.2116V76.7739C98.7638 79.7982 96.8936 82.6702 94.2092 84.0577C80.7234 91.589 67.2446 99.1295 53.7611 106.661C51.0137 108.217 47.4373 108.097 44.7757 106.413C40.7327 104.092 36.6827 101.782 32.6393 99.4623C31.813 98.9744 30.8816 98.586 30.2982 97.7925C30.814 97.1039 31.7361 97.0181 32.4854 96.7175C34.173 96.1859 35.7231 95.3326 37.2735 94.5046C37.6655 94.2388 38.1442 94.3407 38.52 94.5785C41.9773 96.5421 45.404 98.5627 48.8729 100.507C49.6129 100.931 50.3622 100.369 50.9947 100.02C64.2284 92.6108 77.4784 85.23 90.7098 77.819C91.2 77.5854 91.4711 77.0699 91.4312 76.5379C91.4405 61.5079 91.4336 46.4753 91.4359 31.4453C91.492 30.8417 91.1393 30.2868 90.5884 30.0397C77.1494 22.5429 63.7173 15.0346 50.2806 7.5359C50.0478 7.37737 49.772 7.2923 49.4895 7.29189C49.207 7.29148 48.931 7.37574 48.6977 7.5336C35.261 15.0346 21.8313 22.5498 8.3946 30.0462C7.84558 30.2936 7.47712 30.8394 7.54246 31.4453C7.54478 46.4753 7.54246 61.5079 7.54246 76.5402C7.51916 76.7998 7.57671 77.0602 7.70736 77.2864C7.83801 77.5125 8.03549 77.6936 8.2732 77.8052C11.8588 79.8193 15.4491 81.8192 19.0371 83.8264C21.0584 84.9041 23.5402 85.5444 25.7672 84.7188C27.7325 84.0206 29.1101 82.0341 29.0726 79.9671C29.0911 65.0248 29.0633 50.0802 29.0865 35.1402C29.0374 34.4769 29.6726 33.9289 30.3237 33.9913C32.0466 33.9798 33.7717 33.9683 35.4946 33.9959C36.2137 33.9798 36.7086 34.6941 36.6197 35.3624C36.6127 50.3993 36.6382 65.4365 36.6081 80.4734C36.6127 84.4809 34.9506 88.8415 31.2083 90.8024C26.5981 93.168 20.8999 92.6663 16.3453 90.3979C12.4024 88.4486 8.63973 86.148 4.76681 84.0596C2.07545 82.6798 0.21458 79.7963 0.233525 76.7742V31.2116C0.205301 28.2474 1.97493 25.3915 4.59863 23.9925C18.0821 16.4551 31.5633 8.91194 45.0444 1.37109Z" fill="#E40037"/>
<path d="M56.8074 32.9324C62.6881 32.5575 68.9837 32.7103 74.2755 35.58C78.3727 37.779 80.6442 42.3943 80.7165 46.9031C80.602 47.5113 79.9602 47.8468 79.3741 47.805C77.6678 47.8027 75.9612 47.828 74.255 47.7936C73.5312 47.8211 73.1106 47.1601 73.0197 46.5263C72.5295 44.369 71.3417 42.2323 69.2918 41.1918C66.145 39.6311 62.4963 39.7096 59.0649 39.7422C56.5599 39.8739 53.8663 40.0888 51.744 41.5479C50.1147 42.6532 49.6199 44.8844 50.2014 46.6814C50.7496 47.9716 52.2532 48.3879 53.4835 48.7717C60.5705 50.6077 68.0805 50.425 75.0322 52.8412C77.9103 53.8262 80.7257 55.7411 81.7109 58.7261C82.9995 62.7267 82.4347 67.5085 79.5612 70.7202C77.231 73.3631 73.8371 74.8016 70.4521 75.5829C65.949 76.5775 61.2757 76.6027 56.7026 76.1612C52.4025 75.6756 47.9276 74.5565 44.6079 71.6543C41.7693 69.2128 40.3828 65.4087 40.5204 61.737C40.5533 61.117 41.1765 60.6846 41.7762 60.7356C43.4944 60.7218 45.2126 60.7172 46.9308 60.7379C47.6171 60.6892 48.1259 61.2767 48.1611 61.9174C48.4781 63.9729 49.258 66.1302 51.0674 67.3488C54.5595 69.5804 58.9412 69.4276 62.9398 69.4901C66.2525 69.3445 69.9711 69.3005 72.6745 67.1317C74.1008 65.8947 74.5234 63.825 74.1379 62.0446C73.7203 60.5414 72.1328 59.8409 70.7695 59.3829C63.7734 57.1907 56.1795 57.9861 49.251 55.5071C46.4382 54.5225 43.7183 52.6608 42.6376 49.7985C41.1298 45.7473 41.8207 40.7364 44.9953 37.6331C48.0907 34.5463 52.559 33.3579 56.8074 32.9324Z" fill="#E40037"/>
</svg>
