<svg width="97" height="108" viewBox="0 0 97 108" fill="none" xmlns="http://www.w3.org/2000/svg">
<path d="M97 54.0097C97 47.7309 88.9529 41.7805 76.6154 38.0905C79.4625 25.8034 78.1971 16.0278 72.6215 12.8981C71.3363 12.1639 69.8337 11.8162 68.1926 11.8162V16.1244C69.1021 16.1244 69.8337 16.2983 70.4466 16.6267C73.1355 18.1336 74.3021 23.8715 73.3926 31.2515C73.1751 33.0675 72.8192 34.9801 72.3842 36.9314C68.509 36.004 64.2778 35.2892 59.8292 34.8256C57.16 31.2515 54.392 28.0058 51.6042 25.1659C58.0497 19.3121 64.0999 16.1051 68.2124 16.1051V11.7969C62.7752 11.7969 55.6574 15.5835 48.4605 22.1521C41.2636 15.6221 34.1457 11.8742 28.7085 11.8742V16.1824C32.8013 16.1824 38.8712 19.3701 45.3168 25.1852C42.5487 28.0251 39.7807 31.2515 37.151 34.8256C32.6826 35.2892 28.4515 36.004 24.5762 36.9507C24.1215 35.0187 23.7854 33.1448 23.5481 31.3481C22.6188 23.9681 23.7656 18.2302 26.4348 16.704C27.0279 16.3562 27.799 16.2017 28.7085 16.2017V11.8935C27.0477 11.8935 25.545 12.2412 24.2401 12.9754C18.6843 16.1051 17.4386 25.8614 20.3055 38.1098C8.00754 41.8192 0 47.7502 0 54.0097C0 60.2885 8.04708 66.2388 20.3846 69.9288C17.5375 82.216 18.8029 91.9915 24.3785 95.1213C25.6637 95.8554 27.1663 96.2032 28.8272 96.2032C34.2644 96.2032 41.3822 92.4166 48.5791 85.848C55.776 92.3779 62.8938 96.1259 68.331 96.1259C69.9918 96.1259 71.4945 95.7781 72.7994 95.044C78.3553 91.9143 79.6009 82.158 76.734 69.9095C88.9925 66.2195 97 60.2692 97 54.0097ZM71.2572 41.1237C70.5257 43.6159 69.6162 46.1853 68.5881 48.7548C67.7774 47.2093 66.9272 45.6637 65.998 44.1182C65.0885 42.5726 64.1197 41.0657 63.1508 39.5974C65.9584 40.0031 68.6671 40.5054 71.2572 41.1237ZM62.2018 61.6988C60.6596 64.3069 59.0779 66.7798 57.4368 69.0788C54.4908 69.3299 51.5053 69.4652 48.5 69.4652C45.5145 69.4652 42.5289 69.3299 39.6027 69.0981C37.9617 66.7991 36.3602 64.3455 34.818 61.7567C33.3153 59.2259 31.9511 56.6564 30.7055 54.0676C31.9313 51.4788 33.3153 48.89 34.7982 46.3592C36.3404 43.7511 37.9221 41.2782 39.5632 38.9792C42.5092 38.7281 45.4947 38.5928 48.5 38.5928C51.4855 38.5928 54.4711 38.7281 57.3973 38.9599C59.0383 41.2589 60.6398 43.7125 62.182 46.3013C63.6847 48.8321 65.0489 51.4016 66.2945 53.9904C65.0489 56.5792 63.6847 59.1679 62.2018 61.6988ZM68.5881 59.1873C69.6557 61.7761 70.5652 64.3649 71.3166 66.8764C68.7265 67.4946 65.998 68.0162 63.1706 68.4219C64.1394 66.9343 65.1082 65.4081 66.0177 63.8432C66.9272 62.2977 67.7774 60.7328 68.5881 59.1873ZM48.5395 79.801C46.7008 77.9464 44.862 75.8792 43.043 73.6188C44.8225 73.6961 46.6415 73.7541 48.4802 73.7541C50.3388 73.7541 52.1775 73.7154 53.9768 73.6188C52.1973 75.8792 50.3585 77.9464 48.5395 79.801ZM33.8294 68.4219C31.0218 68.0162 28.3131 67.5139 25.723 66.8957C26.4545 64.4035 27.364 61.834 28.3922 59.2646C29.2028 60.8101 30.053 62.3557 30.9823 63.9012C31.9115 65.4467 32.8606 66.9537 33.8294 68.4219ZM48.4407 28.2183C50.2795 30.073 52.1182 32.1402 53.9372 34.4005C52.1578 34.3233 50.3388 34.2653 48.5 34.2653C46.6415 34.2653 44.8027 34.3039 43.0035 34.4005C44.7829 32.1402 46.6217 30.073 48.4407 28.2183ZM33.8096 39.5974C32.8408 41.085 31.872 42.6113 30.9625 44.1761C30.053 45.7217 29.2028 47.2672 28.3922 48.8128C27.3245 46.224 26.415 43.6352 25.6637 41.1237C28.2538 40.5248 30.9823 40.0031 33.8096 39.5974ZM15.9162 63.7853C8.91704 60.8681 4.38932 57.0428 4.38932 54.0097C4.38932 50.9765 8.91704 47.132 15.9162 44.2341C17.6166 43.5193 19.4751 42.8817 21.393 42.2828C22.52 46.0694 24.0029 50.0106 25.8416 54.0483C24.0226 58.0667 22.5595 61.9886 21.4523 65.7559C19.4949 65.157 17.6364 64.5001 15.9162 63.7853ZM26.5534 91.3926C23.8645 89.8857 22.6979 84.1479 23.6074 76.7679C23.8249 74.9519 24.1808 73.0393 24.6158 71.088C28.491 72.0153 32.7222 72.7301 37.1708 73.1938C39.84 76.7679 42.608 80.0135 45.3958 82.8535C38.9503 88.7073 32.9001 91.9143 28.7876 91.9143C27.8979 91.895 27.1466 91.7211 26.5534 91.3926ZM73.4519 76.6713C74.3812 84.0513 73.2344 89.7891 70.5652 91.3154C69.9721 91.6631 69.201 91.8177 68.2915 91.8177C64.1987 91.8177 58.1288 88.63 51.6833 82.8149C54.4513 79.9749 57.2193 76.7486 59.849 73.1745C64.3174 72.7108 68.5485 71.996 72.4238 71.0494C72.8785 73.0006 73.2344 74.8746 73.4519 76.6713ZM81.064 63.7853C79.3636 64.5001 77.5051 65.1376 75.5872 65.7365C74.4603 61.9499 72.9774 58.0088 71.1386 53.971C72.9576 49.9526 74.4207 46.0308 75.5279 42.2635C77.4853 42.8624 79.3439 43.5193 81.0838 44.2341C88.083 47.1513 92.6107 50.9765 92.6107 54.0097C92.5909 57.0428 88.0632 60.8874 81.064 63.7853Z" fill="#E40037"/>
<path d="M48.4802 62.8386C53.4705 62.8386 57.5159 58.8857 57.5159 54.0096C57.5159 49.1335 53.4705 45.1807 48.4802 45.1807C43.49 45.1807 39.4445 49.1335 39.4445 54.0096C39.4445 58.8857 43.49 62.8386 48.4802 62.8386Z" fill="#E40037"/>
</svg>
