<svg width="107" height="108" viewBox="0 0 107 108" fill="none" xmlns="http://www.w3.org/2000/svg">
<path d="M38.9898 35.4995C30.5561 21.3372 37.999 1.29816 53.9747 0.503662C69.9628 1.29816 77.4057 21.3372 68.9597 35.4995C71.6594 39.2703 70.6935 45.4119 66.52 47.9215C68.9473 51.213 70.7678 52.8903 73.8391 54.2271C75.2757 54.8576 76.8856 54.9837 78.3717 54.5171C79.6777 54.1086 80.8832 53.4216 81.9081 52.5018C82.9331 51.582 83.754 50.4505 84.3162 49.1826C85.6041 45.9416 85.8147 43.5076 85.6784 39.8756C85.6529 38.8899 85.4427 37.9183 85.0592 37.0129C83.5112 33.4565 81.2201 30.4046 77.4181 25.335C76.3247 24.1325 75.4821 22.7168 74.9413 21.1733C73.9877 18.0205 75.4366 13.7706 78.5946 13.1274C79.4739 12.9382 80.4647 13.0391 81.6907 13.2913C83.2635 13.8462 84.118 14.3002 84.762 15.2713C85.2945 16.091 84.7496 17.0873 83.9322 16.5702L83.3626 16.2171C83.0162 16.0155 82.622 15.9151 82.2232 15.9271C81.6659 15.9271 81.282 16.0027 80.9105 16.1289C80.1126 16.4475 79.4654 17.066 79.1024 17.8566C78.607 19.0294 79.3748 20.3157 80.2541 21.2237C83.4746 24.5394 86.4937 28.0518 89.2946 31.7414C92.3412 36.1301 93.4557 39.0054 93.8273 43.6968C93.9263 44.8318 93.8892 45.992 93.7034 47.1018C93.3147 50.0354 92.1214 52.7978 90.2606 55.072C87.8807 57.8341 85.1677 60.279 82.1861 62.3486C84.7991 63.4584 86.1986 63.4584 88.6754 63.1053C92.8613 62.6765 94.4836 61.6046 97.4806 59.839C99.7098 58.25 100.639 57.0393 102.261 54.8198C103.3 53.4859 103.936 51.8738 104.094 50.1789C104.342 47.6693 104.416 46.4712 103.97 44.0373C104.782 44.6721 105.38 45.5495 105.679 46.5469C106.472 48.6908 106.67 49.8762 106.67 51.9445C106.546 55.0468 106.249 56.8628 105.357 59.3724C105.093 60.1068 104.756 60.8123 104.354 61.4785C102.984 64.0267 101.05 66.2156 98.7067 67.8723C96.8059 68.935 94.7957 69.7809 92.7127 70.3945C91.0532 70.8233 90.1739 70.899 88.6754 70.8864C93.1957 72.7276 95.1152 74.3544 97.7159 78.0369C99.425 80.9374 99.8213 82.8669 99.8089 86.6881C99.5808 88.3005 99.2372 89.8937 98.781 91.4551C98.4252 92.9432 97.7528 94.3335 96.8112 95.5277C95.8696 96.7219 94.6818 97.6908 93.3319 98.366C92.1153 98.9767 90.7748 99.2877 89.4185 99.274C88.7002 99.274 88.0191 98.9461 87.5113 98.4291C87.4972 98.4112 87.4896 98.3889 87.4896 98.366C87.4896 98.3431 87.4972 98.3208 87.5113 98.303C88.2832 97.5228 89.3006 97.0449 90.3844 96.9536C92.2916 96.7013 92.8613 95.5285 93.9387 93.9773C95.945 90.4084 95.5115 88.3528 95.1524 84.6829C94.2236 82.3373 93.3443 80.9374 91.2637 79.6133C89.9825 78.8692 88.511 78.5352 87.0407 78.6548C80.6628 78.9323 76.5141 78.68 69.8266 76.5362C69.7027 80.9501 69.3312 83.2831 67.2506 86.6881C65.4673 89.2482 64.489 91.0389 63.9812 93.4098C63.515 95.3652 63.8172 97.4287 64.8233 99.1605C65.4736 100.211 66.423 101.035 67.5448 101.521C68.6667 102.008 69.9077 102.135 71.1022 101.885C72.3763 101.611 73.5639 101.02 74.5582 100.163C75.5525 99.3071 76.3224 98.2129 76.7989 96.9788C77.345 95.455 77.5563 93.8278 77.4181 92.2118C78.1364 93.5738 78.5946 94.4944 78.9414 95.6925C79.1891 96.5374 79.2881 97.4202 79.2758 98.303C79.3297 99.9011 78.8494 101.471 77.9135 102.755C76.1054 105.063 74.9413 106.034 72.2787 106.399C71.0031 106.639 69.9999 106.752 69.0587 106.765C66.5324 106.79 63.8698 106.261 62.0493 104.508C61.6777 104.155 61.3062 103.751 60.8975 103.247C59.1142 101.431 58.4207 100.094 57.9501 96.9788C57.8634 94.8097 57.8881 93.1576 58.0491 91.4803C58.3587 88.2645 59.6591 85.2504 60.3155 82.0977C60.4393 81.4797 60.5631 80.8113 60.6498 80.042C61.1559 78.3227 61.1559 76.49 60.6498 74.7706C59.8944 73.005 59.0399 72.3745 57.3432 71.3908C55.1535 70.6688 52.7959 70.6688 50.6062 71.3908C48.9096 72.3619 48.0674 73.005 47.312 74.7706C46.806 76.49 46.806 78.3227 47.312 80.042C47.3987 80.8113 47.5101 81.4797 47.6464 82.0977C48.3027 85.2504 49.5907 88.2771 49.9003 91.4803C50.0737 93.1576 50.0985 94.8097 49.9994 96.9788C49.5288 100.106 48.8353 101.431 47.0643 103.259C46.6432 103.751 46.2717 104.155 45.9126 104.52C44.0797 106.273 41.4171 106.79 38.9031 106.765C37.821 106.735 36.7435 106.609 35.6832 106.387C33.0082 106.034 31.844 105.063 30.0483 102.755C29.1124 101.471 28.6321 99.9011 28.6861 98.303C28.6613 97.4202 28.7728 96.5374 29.0204 95.6925C29.3672 94.4944 29.813 93.5738 30.5437 92.2118C30.4055 93.8278 30.6169 95.455 31.1629 96.9788C31.6411 98.2105 32.4117 99.3022 33.4059 100.156C34.4001 101.01 35.5868 101.6 36.8597 101.872C37.3427 101.985 37.7885 102.023 38.2467 102.023C39.2281 101.99 40.1863 101.711 41.0371 101.212C41.8879 100.713 42.6053 100.008 43.1261 99.1605C44.1365 97.4304 44.4431 95.3669 43.9806 93.4098C43.4729 91.0389 42.4945 89.2482 40.6988 86.6881C38.6182 83.2831 38.2591 80.9501 38.1353 76.5362C31.4354 78.68 27.2866 78.9323 20.9211 78.6548C19.4468 78.5326 17.9705 78.8667 16.6857 79.6133C15.5984 80.2628 14.6742 81.1608 13.9859 82.2364C13.0844 83.8087 12.5861 85.5869 12.537 87.4069C12.2927 89.7009 12.8163 92.0117 14.0231 93.9647C15.1005 95.5285 15.6578 96.6887 17.5774 96.9536C18.6424 97.1049 19.7199 97.4706 20.4505 98.2903C20.4753 98.3282 20.4753 98.3912 20.4505 98.4291C19.9304 98.9461 19.2493 99.274 18.531 99.274C17.082 99.274 16.0913 99.0218 14.6299 98.366C12.8591 97.4707 11.3798 96.0738 10.3697 94.3431C9.85034 93.4334 9.45062 92.4582 9.18086 91.4425C8.80933 90.1562 8.51211 89.0086 8.15296 86.6881C8.14058 82.8669 8.52449 80.9374 10.2335 78.0369C12.8342 74.3544 14.7662 72.7276 19.274 70.8864C17.7879 70.899 16.9086 70.8233 15.2491 70.3819C13.1624 69.7732 11.148 68.9315 9.24278 67.8723C6.90333 66.2145 4.9743 64.0256 3.60794 61.4785C3.20101 60.8129 2.8608 60.1073 2.59243 59.3724C1.70077 56.8502 1.40354 55.0468 1.29208 51.9318C1.29208 49.8762 1.49023 48.6908 2.28283 46.5469C2.65435 45.3867 3.06303 44.857 3.99185 44.0247C3.53363 46.4712 3.60794 47.6819 3.86801 50.1789C4.06616 52.1967 4.61107 53.2056 5.70088 54.8198C7.31083 57.0393 8.25204 58.25 10.4688 59.839C13.4782 61.6046 15.1005 62.6765 19.2864 63.1053C21.7633 63.4584 23.1627 63.4584 25.7634 62.3486C22.7817 60.279 20.0687 57.8341 17.6888 55.072C15.8301 52.8013 14.637 50.0435 14.246 47.1144C14.0726 45.9794 14.0355 44.8444 14.1222 43.7094C14.4937 39.0054 15.6083 36.1427 18.6672 31.7288C21.9862 27.4536 24.1534 24.9188 27.7077 21.2237C28.5746 20.3157 29.3548 19.0294 28.8471 17.8692C28.4866 17.0738 27.8391 16.4505 27.039 16.1289C26.6674 16.0027 26.2959 15.9271 25.7262 15.9271C25.3275 15.9151 24.9332 16.0155 24.5869 16.2171C24.4135 16.3054 24.2153 16.4441 24.0172 16.5702C23.2122 17.0873 22.6549 16.091 23.1998 15.2713C23.8438 14.2876 24.6859 13.8462 26.2588 13.2913C27.4972 13.0391 28.4879 12.9382 29.3548 13.1274C32.5252 13.758 33.9618 18.0079 33.0082 21.1733C32.6366 22.4092 31.8936 23.7081 30.5313 25.335C26.7293 30.4046 24.4506 33.4565 22.9026 37.0129C22.5191 37.9183 22.3089 38.8899 22.2834 39.8756C22.1348 43.5076 22.3453 45.9289 23.6457 49.1826C24.2079 50.4505 25.0287 51.582 26.0537 52.5018C27.0786 53.4216 28.2842 54.1086 29.5901 54.5171C31.0762 54.9837 32.6862 54.8576 34.1104 54.2397C37.194 52.8903 39.0145 51.213 41.4295 47.9341C37.2684 45.4119 36.29 39.2703 38.9898 35.4995Z" fill="url(#paint0_linear_111_1111)"/>
<path d="M3.60794 48.6151L3.73178 47.0891C3.80608 46.055 3.97946 45.0335 4.22715 44.0372C3.49648 44.6678 3.00111 45.6767 2.64196 46.4207C2.25805 47.5936 1.77506 48.7538 1.61407 49.9897L1.53976 50.8094C1.57692 52.5624 1.61407 53.546 1.78745 55.3242C2.01036 57.0393 2.23328 57.9725 2.88965 59.5868L4.84636 63.1053C5.93049 64.7204 7.25013 66.1578 8.75979 67.3678C11.0137 68.7929 12.1902 69.1712 14.1469 70.0162C16.2151 70.5711 17.4288 70.962 19.5217 70.8863L17.565 71.7691C20.6115 70.8233 23.8438 70.7602 26.977 70.2306L28.9585 69.8774C31.6459 69.6252 32.8596 69.0577 35.3116 67.9984C35.7699 67.7462 36.1662 67.5192 36.5253 67.2922C38.965 65.7284 40.674 62.8783 40.3273 59.9777C40.0796 58.9184 38.8412 59.9777 38.0981 60.747L37.6399 61.2262C36.6401 62.6266 35.3453 63.7814 33.8503 64.606C31.0515 66.4472 29.1443 67.0904 25.5281 67.9984C22.0853 68.3767 20.2276 68.0993 16.9582 67.2417C13.1686 66.3589 11.5091 65.0978 8.75979 62.6008C7.8568 61.5369 7.03694 60.4026 6.3077 59.2084C4.37201 56.0385 3.4303 52.3435 3.60794 48.6151ZM104.899 48.489C104.873 47.9799 104.84 47.4712 104.8 46.963C104.701 45.9289 104.527 44.9074 104.28 43.9111C105.023 44.5417 105.518 45.5506 105.877 46.2946C106.249 47.4675 106.744 48.6277 106.893 49.8636L106.979 50.6833C106.956 52.191 106.873 53.6971 106.732 55.1981C106.509 56.9132 106.286 57.8464 105.629 59.4607L103.673 62.9918C102.587 64.6022 101.268 66.0352 99.7593 67.2417C97.5054 68.6668 96.3289 69.0451 94.3722 69.8901C92.304 70.4449 91.0903 70.8359 88.985 70.7602L90.9417 71.643C87.8952 70.6972 84.6753 70.6341 81.5297 70.1044L79.5606 69.7513C76.8732 69.4991 75.6472 68.9316 73.2075 67.8723C72.7493 67.6201 72.3406 67.3931 71.9938 67.1661C69.5541 65.6023 67.8451 62.7522 68.1795 59.8516C68.4395 58.7923 69.6656 59.8516 70.4086 60.6209L70.8792 61.1001C71.879 62.5005 73.1738 63.6553 74.6688 64.4799C77.4677 66.3211 79.3748 66.9643 82.991 67.8849C86.4339 68.2632 88.2915 67.9732 91.5609 67.1282C95.3505 66.2202 97.01 64.9843 99.7593 62.4747C100.662 61.4107 101.482 60.2764 102.211 59.0823C104.143 55.911 105.08 52.2161 104.899 48.489Z" fill="white" fill-opacity="0.2"/>
<path d="M26.717 15.9774L26.1597 15.9396C25.2432 15.9648 24.3887 17.0746 23.559 16.6836C23.559 15.5991 24.4011 14.6785 25.4166 14.3253C25.9368 14.1362 26.4817 14.111 27.2371 14.174C29.33 14.174 31.6211 15.0568 31.9184 17.1755C32.0725 18.1022 32.0308 19.0518 31.7958 19.9609C31.5609 20.8699 31.1383 21.7175 30.5561 22.4469L24.4259 29.7235C22.3693 32.9382 20.7996 36.4498 19.7694 40.1403C19.1007 43.2805 19.0635 44.9704 20.0171 47.7953C20.884 50.2166 21.528 51.3895 22.9522 53.1928C24.1929 54.6577 25.5338 56.0316 26.9647 57.3041C29.1691 59.2084 28.8966 62.7395 26.0111 62.3485L24.1782 60.9613C22.6107 59.7864 21.1366 58.4877 19.7694 57.0771C17.6888 54.8197 16.4628 53.319 15.373 50.431C14.8776 49.1699 14.1717 47.026 14.3822 44.6551C14.3822 43.167 14.5061 42.3094 14.7538 40.7961V40.7583C15.051 39.3584 15.2368 38.5639 15.8684 37.1263C16.7353 35.1589 17.3297 34.2257 18.5434 32.3467C18.9149 31.7161 21.0821 28.8912 22.9522 26.7095L25.8872 23.4432L28.3393 20.8075L28.6489 20.3787C29.1691 19.5716 29.4291 18.4996 29.0204 17.6421C28.7777 17.2113 28.446 16.8394 28.0483 16.552C27.6506 16.2646 27.1964 16.0685 26.717 15.9774ZM81.8517 16.1413C82.0251 16.1035 82.2232 16.0909 82.409 16.1035C83.3254 16.1161 84.1675 17.2385 85.0097 16.835C85.0097 15.7504 84.1675 14.8298 83.152 14.4767C82.5629 14.2936 81.942 14.242 81.3316 14.3253C79.2262 14.3253 76.9475 15.2207 76.6503 17.3268L76.5512 18.3357C76.5324 19.8931 77.0543 21.4072 78.0249 22.6109L84.1428 29.8875C86.1992 33.1023 87.7689 36.6138 88.7993 40.3043C89.468 43.4318 89.5052 45.1343 88.5516 47.9592C87.9289 49.9326 86.9317 51.7622 85.6165 53.3442C84.3758 54.8091 83.0349 56.183 81.604 57.4554C79.3872 59.3723 79.6721 62.8908 82.5576 62.4999L84.3905 61.1252C85.958 59.9505 87.4322 58.6517 88.7993 57.241C90.8798 54.971 92.0935 53.4703 93.1957 50.595C93.6786 49.3338 94.3969 47.1899 94.1864 44.8191C94.1864 43.3183 94.0626 42.4608 93.8149 40.9474V40.9222C93.5863 39.6708 93.2121 38.4515 92.7003 37.2902C91.9538 35.6186 91.054 34.0226 90.0129 32.5232C89.6414 31.8927 87.4741 29.0551 85.6165 26.8734L82.669 23.6071L80.2294 20.9714C80.1055 20.8327 80.0064 20.694 79.9074 20.5426C79.3996 19.7481 79.1395 18.6762 79.5482 17.806C79.7909 17.3753 80.1226 17.0034 80.5203 16.7159C80.918 16.4285 81.3723 16.2325 81.8517 16.1413Z" fill="white" fill-opacity="0.2"/>
<path d="M38.2219 70.7603C38.2725 72.6865 38.2311 74.614 38.0981 76.5362C35.9928 77.4315 34.7667 77.4946 32.3518 78.0369C27.9925 78.7431 25.751 78.8188 21.949 78.6674C20.4609 78.494 18.9535 78.6665 17.5402 79.1719C16.3127 79.7569 15.2294 80.6144 14.3699 81.6815L13.9488 82.312C13.0886 83.849 12.6083 85.5759 12.5494 87.3439L12.5246 87.5709C12.4255 89.2734 12.5494 90.0174 12.7723 91.3416C13.1438 92.2874 13.342 92.8297 13.8745 93.7251L15.1005 95.6042C15.955 96.3987 16.4628 96.7392 17.5402 96.9914H17.8127C18.6548 97.0418 19.5093 97.3697 20.1161 97.9877L20.4877 98.366C19.4271 98.6198 18.3193 98.5806 17.2786 98.2525C16.2379 97.9244 15.3021 97.3192 14.568 96.4996L14.1222 95.9825C12.2633 94.5376 10.9264 92.5066 10.3202 90.2066C9.32946 87.47 9.41615 85.8684 10.3202 82.93C10.8363 80.9257 12.0013 79.1572 13.6268 77.9108C14.4442 77.1793 15.1501 76.5866 15.9427 76.0695C18.7291 74.2535 22.1348 73.7365 25.429 73.4212L26.9399 73.3077C30.8533 73.0429 34.9649 72.9672 38.2219 70.7603ZM69.5913 70.7603C69.5541 72.5636 69.616 76.4353 69.7151 76.5362C71.8204 77.4315 73.0588 77.4946 75.4614 78.0369C79.833 78.7431 82.0622 78.8188 85.8642 78.6674C87.3523 78.494 88.8597 78.6665 90.273 79.1719C91.505 79.7553 92.5926 80.6129 93.4557 81.6815L93.8644 82.312C94.729 83.8478 95.2135 85.5748 95.2762 87.3439L95.2886 87.5709C95.4124 89.2734 95.2762 90.0174 95.0409 91.3416C94.6694 92.2874 94.4836 92.8297 93.9511 93.7251L92.7127 95.6042C91.8705 96.3987 91.3504 96.7392 90.273 96.9914H90.0129C89.1708 97.0418 88.3039 97.3697 87.7094 97.9877L87.3379 98.366C89.4432 98.9083 91.7838 98.139 93.2452 96.4996L93.7034 95.9825C95.5577 94.5356 96.8901 92.5049 97.493 90.2066C98.4837 87.47 98.397 85.8684 97.493 82.93C96.9769 80.9257 95.8119 79.1572 94.1864 77.9108C93.4682 77.2352 92.6979 76.6195 91.8829 76.0695C89.0841 74.2535 85.6908 73.7365 82.3966 73.4212L80.8733 73.3077C76.9723 73.0429 72.8607 72.9672 69.6036 70.7603H69.5913Z" fill="#C4C4C4" fill-opacity="0.3"/>
<path d="M53.789 67.4939V70.8863C53.2936 70.7602 51.2254 71.1385 50.6062 71.3908C48.6867 72.3997 48.1294 73.0428 47.5473 74.2787C46.9689 75.7506 46.7976 77.3556 47.0519 78.9196L48.1665 84.3046L49.7517 90.3327C50.2223 93.1071 50.2471 94.5826 49.9994 97.1049C49.7146 98.5299 49.504 99.2488 49.021 100.497C48.2512 102.368 46.9261 103.946 45.2315 105.012C43.5224 106.475 42.3459 106.752 40.092 106.778L35.6832 106.399C33.4788 106.021 32.711 105.516 31.5221 104.508C30.4323 103.615 29.5876 102.451 29.07 101.128C28.6082 99.8392 28.5222 98.4421 28.8223 97.1049C29.0081 95.3141 29.4911 94.2043 30.5437 92.2117C30.2695 93.4057 30.0914 94.6203 30.0112 95.8437C29.9493 97.1805 30.296 98.4921 30.7914 99.7532C31.0886 100.51 31.3611 101.103 31.6583 101.607C32.268 102.547 33.119 103.3 34.119 103.782C35.1189 104.264 36.2296 104.459 37.3303 104.344C38.544 104.18 39.7948 103.864 40.996 103.663C43.8073 103.196 46.247 101.14 46.668 98.2651C46.73 97.8994 46.7671 97.521 46.8166 97.1049C47.1386 93.7125 46.8786 91.8208 46.3213 88.4536C45.5411 85.9692 45.12 84.4559 44.3646 81.6814C43.4605 79.0962 43.3738 77.5324 43.6339 74.6444C43.8351 73.2099 44.432 71.8629 45.3553 70.7602L45.4791 70.6089C46.5329 69.4297 47.8619 68.5404 49.343 68.0236C50.953 67.5192 52.0428 67.4561 53.8014 67.4939H53.789Z" fill="#C4C4C4" fill-opacity="0.2"/>
<path d="M53.7889 67.4939V70.7728C54.2843 70.6467 56.4887 71.1512 57.0955 71.4034C59.0275 72.4123 59.5724 73.0554 60.1544 74.2787C60.8727 76.2334 60.7984 77.2045 60.6498 78.9196L59.5352 84.3172L57.95 90.3453C57.4794 93.1197 57.4671 94.5952 57.7024 97.1175C57.9872 98.5299 58.2101 99.2614 58.6931 100.51C59.463 102.38 60.788 103.959 62.4827 105.025C64.1917 106.488 65.3558 106.765 67.6222 106.79L72.031 106.412C74.2354 106.034 75.0032 105.529 76.1921 104.52C77.2795 103.623 78.12 102.454 78.6318 101.128C79.1767 99.5766 79.1271 98.2525 78.8794 97.1175C78.7061 95.3141 78.2107 94.2169 77.1704 92.2243C77.4553 93.662 77.641 94.6835 77.6906 95.8437C77.7092 97.1875 77.4475 98.5201 76.9227 99.7532C76.6884 100.396 76.3983 101.017 76.0558 101.607C75.4451 102.549 74.5921 103.303 73.5897 103.785C72.5874 104.268 71.4742 104.461 70.3715 104.344C69.1702 104.192 67.9194 103.877 66.7181 103.675C63.9069 103.196 61.4672 101.14 61.0337 98.2651L60.8975 97.1175C60.5755 93.7251 60.8232 91.8208 61.3929 88.4662C62.1607 85.9692 62.5942 84.4685 63.3372 81.6814C64.2536 79.1088 64.3279 77.545 64.0803 74.657C63.8791 73.2225 63.2821 71.8756 62.3588 70.7728L62.235 70.6215C61.1789 69.4363 59.8454 68.5426 58.3587 68.0236C56.724 67.5192 55.5475 67.4561 53.7889 67.4939Z" fill="#C4C4C4" fill-opacity="0.2"/>
<path d="M50.4948 45.9164V56.3332M54.6559 44.6553V57.2033M58.3216 45.6642V56.7115" stroke="black" stroke-opacity="0.3" stroke-linecap="round"/>
<path d="M43.6339 45.6641C45.3917 45.6641 46.8166 43.6992 46.8166 41.2754C46.8166 38.8516 45.3917 36.8867 43.6339 36.8867C41.8761 36.8867 40.4511 38.8516 40.4511 41.2754C40.4511 43.6992 41.8761 45.6641 43.6339 45.6641Z" fill="#15172E"/>
<path d="M43.0271 40.4053C43.6358 40.4053 44.1293 39.8971 44.1293 39.2703C44.1293 38.6434 43.6358 38.1353 43.0271 38.1353C42.4183 38.1353 41.9249 38.6434 41.9249 39.2703C41.9249 39.8971 42.4183 40.4053 43.0271 40.4053Z" fill="white" fill-opacity="0.9"/>
<path d="M64.9348 45.6641C66.6926 45.6641 68.1175 43.6992 68.1175 41.2754C68.1175 38.8516 66.6926 36.8867 64.9348 36.8867C63.177 36.8867 61.752 38.8516 61.752 41.2754C61.752 43.6992 63.177 45.6641 64.9348 45.6641Z" fill="#15172E"/>
<path d="M64.3156 40.4053C64.9243 40.4053 65.4178 39.8971 65.4178 39.2703C65.4178 38.6434 64.9243 38.1353 64.3156 38.1353C63.7068 38.1353 63.2134 38.6434 63.2134 39.2703C63.2134 39.8971 63.7068 40.4053 64.3156 40.4053Z" fill="white" fill-opacity="0.9"/>
<path d="M45.4668 13.5434C46.2123 13.5434 46.8167 12.928 46.8167 12.1688C46.8167 11.4096 46.2123 10.7942 45.4668 10.7942C44.7212 10.7942 44.1169 11.4096 44.1169 12.1688C44.1169 12.928 44.7212 13.5434 45.4668 13.5434Z" fill="#15172E" fill-opacity="0.3"/>
<path d="M51.2254 9.77269C52.0394 9.77269 52.6992 9.10079 52.6992 8.27197C52.6992 7.44314 52.0394 6.77124 51.2254 6.77124C50.4115 6.77124 49.7517 7.44314 49.7517 8.27197C49.7517 9.10079 50.4115 9.77269 51.2254 9.77269Z" fill="#15172E" fill-opacity="0.3"/>
<path d="M55.5104 18.0584C57.063 18.0584 58.3216 16.7654 58.3216 15.1704C58.3216 13.5754 57.063 12.2825 55.5104 12.2825C53.9578 12.2825 52.6992 13.5754 52.6992 15.1704C52.6992 16.7654 53.9578 18.0584 55.5104 18.0584Z" fill="#15172E" fill-opacity="0.3"/>
<path d="M48.1665 19.5591C49.042 19.5591 49.7517 18.8307 49.7517 17.9323C49.7517 17.0338 49.042 16.3054 48.1665 16.3054C47.291 16.3054 46.5813 17.0338 46.5813 17.9323C46.5813 18.8307 47.291 19.5591 48.1665 19.5591Z" fill="#15172E" fill-opacity="0.3"/>
<path d="M44.0054 23.09C44.4773 23.09 44.8599 22.6948 44.8599 22.2072C44.8599 21.7197 44.4773 21.3245 44.0054 21.3245C43.5335 21.3245 43.1509 21.7197 43.1509 22.2072C43.1509 22.6948 43.5335 23.09 44.0054 23.09Z" fill="#15172E" fill-opacity="0.3"/>
<path d="M51.5969 27.34C52.8828 27.34 53.9252 26.2729 53.9252 24.9565C53.9252 23.6401 52.8828 22.573 51.5969 22.573C50.3111 22.573 49.2687 23.6401 49.2687 24.9565C49.2687 26.2729 50.3111 27.34 51.5969 27.34Z" fill="#15172E" fill-opacity="0.3"/>
<defs>
<linearGradient id="paint0_linear_111_1111" x1="53.9747" y1="0.491051" x2="53.9747" y2="106.765" gradientUnits="userSpaceOnUse">
<stop stop-color="#E40037"/>
</linearGradient>
</defs>
</svg>
