<svg width="93" height="108" viewBox="0 0 93 108" fill="none" xmlns="http://www.w3.org/2000/svg">
<path d="M79.5633 34.4294V73.3218L46.6587 92.8742L46.3612 93.146V107.682L46.6587 107.964L93 81.0788V26.8847L92.5622 26.7771L79.4975 34.1131L79.5633 34.4294Z" fill="#FF2B51" fill-opacity="0.88"/>
<path d="M13.6485 73.6403L46.6588 92.8741V107.963L0 80.9726V26.9908L0.478805 26.9182L13.5057 34.5249L13.6485 34.9606V73.6403Z" fill="#E40037" fill-opacity="0.71"/>
<path d="M13.6485 34.9606L0 26.9909L46.553 0L93 26.8847L79.5633 34.4294L46.553 15.5144L13.6485 34.9606Z" fill="#FF2B51"/>
<path d="M46.0924 69.1922L45.7349 68.8259V54.2218L46.0924 54.0364L46.1792 53.6763L58.6452 46.3728L59.0267 46.4585V61.5063L46.0924 69.1922Z" fill="#FF2B51" fill-opacity="0.88"/>
<path d="M32.9423 61.9753V46.3506L33.3038 46.3328L45.9845 53.7446L46.0924 54.0365V69.1923L32.9423 61.9753Z" fill="#E40013"/>
<path d="M45.8766 38.6643L32.9423 46.3506L46.0924 54.0364L59.0266 46.4585L45.8766 38.6643Z" fill="#FF2B51"/>
<path d="M29.9961 78.7188L29.639 78.3525V63.748L29.9961 63.563L30.0833 63.2029L42.549 55.8994L42.9304 55.9852V71.0326L29.9961 78.7188Z" fill="#FF2B51" fill-opacity="0.88"/>
<path d="M16.8464 71.5017V55.8768L17.2075 55.8589L29.8882 63.2711L29.9961 63.563V78.7188L16.8464 71.5017Z" fill="#E40013"/>
<path d="M29.7807 48.1909L16.8464 55.8768L29.9961 63.563L42.9304 55.9852L29.7807 48.1909Z" fill="#FF2B51"/>
<path d="M63.3381 79.0796L62.9806 78.7133V64.1089L63.3381 63.9239L63.4249 63.5638L75.8909 56.2603L76.2723 56.346V71.3934L63.3381 79.0796Z" fill="#FF2B51" fill-opacity="0.88"/>
<path d="M50.188 71.8626V56.2376L50.5495 56.2197L63.2302 63.632L63.3381 63.9239V79.0796L50.188 71.8626Z" fill="#E40013"/>
<path d="M63.1223 48.5518L50.188 56.2376L63.3381 63.9239L76.2724 56.346L63.1223 48.5518Z" fill="#FF2B51"/>
<path d="M47.2418 88.6062L46.8847 88.2399V73.6355L47.2418 73.4505L47.329 73.09L59.795 65.7869L60.1761 65.8726V80.92L47.2418 88.6062Z" fill="#FF2B51" fill-opacity="0.88"/>
<path d="M34.0921 81.3894V65.7645L34.4532 65.7466L47.1343 73.1584L47.2418 73.4507V88.6065L34.0921 81.3894Z" fill="#E40013"/>
<path d="M47.0264 58.0781L34.0921 65.7644L47.2418 73.4506L60.1761 65.8727L47.0264 58.0781Z" fill="#FF2B51"/>
<path d="M46.0924 48.4795L45.7349 48.1128V33.5088L46.0924 33.3238L46.1792 32.9633L58.6452 25.6602L59.0267 25.7459V40.7933L46.0924 48.4795Z" fill="#FF2B51" fill-opacity="0.88"/>
<path d="M32.9423 41.2625V25.6375L33.3038 25.6196L45.9845 33.0315L46.0924 33.3237V48.4795L32.9423 41.2625Z" fill="#E40013"/>
<path d="M45.8766 17.9514L32.9423 25.6377L46.0924 33.3239L59.0266 25.746L45.8766 17.9514Z" fill="#FF2B51"/>
<path d="M29.9961 58.0059L29.639 57.6396V43.0355L29.9961 42.8501L30.0833 42.49L42.549 35.1865L42.9304 35.2723V50.32L29.9961 58.0059Z" fill="#FF2B51" fill-opacity="0.88"/>
<path d="M16.8464 50.7887V35.1641L17.2075 35.1462L29.8882 42.5581L29.9961 42.85V58.0058L16.8464 50.7887Z" fill="#E40013"/>
<path d="M29.7807 27.478L16.8464 35.1643L29.9961 42.8502L42.9304 35.2723L29.7807 27.478Z" fill="#FF2B51"/>
<path d="M63.3381 58.3667L62.9806 58.0004V43.3963L63.3381 43.211L63.4249 42.8509L75.8909 35.5474L76.2723 35.6331V50.6809L63.3381 58.3667Z" fill="#FF2B51" fill-opacity="0.88"/>
<path d="M50.188 51.1496V35.525L50.5495 35.5071L63.2302 42.9189L63.3381 43.2108V58.3666L50.188 51.1496Z" fill="#E40013"/>
<path d="M63.1223 27.8389L50.188 35.5251L63.3381 43.211L76.2724 35.6331L63.1223 27.8389Z" fill="#FF2B51"/>
<path d="M47.2418 67.8934L46.8847 67.527V52.9226L47.2418 52.7376L47.329 52.3775L59.795 45.074L60.1761 45.1597V60.2071L47.2418 67.8934Z" fill="#FF2B51" fill-opacity="0.88"/>
<path d="M34.0921 60.6763V45.0513L34.4532 45.0334L47.1343 52.4457L47.2418 52.7376V67.8933L34.0921 60.6763Z" fill="#E40013"/>
<path d="M47.0264 37.365L34.0921 45.0512L47.2418 52.7375L60.1761 45.1596L47.0264 37.365Z" fill="#FF2B51"/>
</svg>
